<svg xmlns="http://www.w3.org/2000/svg" width="210" height="210" viewBox="0 0 55.562 55.563"><path fill="#fff" paint-order="stroke fill markers" d="M-.001 0h55.563v55.563H-.001z"/><path d="M-105.51 19.344c0-.14.017-.254.036-.254.02 0 .133.114.252.254.207.241.205.253-.035.253-.168 0-.252-.085-.252-.253z"/><path d="M20.514 5.97c-6.344.003-10.82.031-10.82.074 0 .059.956 1.697 2.124 3.641l2.124 3.537-.284.315a13.517 13.517 0 0 1-.596.614c-1.91 1.828-6.85 6.813-6.812 6.874.028.045 3.44.066 7.58.048l7.53-.033-.028-1.59-.028-1.589-3.56-.032c-3.093-.03-3.896-.1-3.465-.303.052-.024 1.013-.98 2.137-2.123l2.042-2.08-.244-.414a300.62 300.62 0 0 1-.785-1.35c-.3-.514-.608-1.02-.687-1.123-.08-.103-.295-.453-.482-.78l-.338-.592h9.194V5.976c-1.574-.002-3.185-.005-4.602-.005z" fill="#f0596c"/><path d="M27.813 5.97h2.697v36.182h-2.697z" fill="#457380" paint-order="markers fill stroke"/><path d="M25.116 5.97h2.697v36.182h-2.697z" fill="#5c98a7" paint-order="markers fill stroke"/><path d="M27.813 49.73l-2.697-5.922h5.395z" fill="#e55c6b" paint-order="markers fill stroke"/><path d="M27.813 8.668V5.97h11.012v2.697zm0 18.068v-2.697h11.012v2.697z" fill="#457380" paint-order="markers fill stroke"/><path d="M38.676 5.965V8.66a7.69 7.69 0 0 1 7.688 7.69 7.69 7.69 0 0 1-7.69 7.689v2.644h-.944a10.384 10.384 0 0 0 .945.051A10.384 10.384 0 0 0 49.059 16.35 10.384 10.384 0 0 0 38.675 5.965z" fill="#457380" paint-order="markers fill stroke"/><path d="M36.072 13.45c-.62.621-1.446 1.332-2.097 1.924l-.182.241c-.113.15-.35.343-.622.507l-.684.312-.01 1.846s1.85-.884 2.077-1.091c.79-.65 1.497-1.434 2.23-2.168l.274-.294z" fill="#45747e"/><path d="M33.398 14.83a.692.692 0 0 0 .064.356.635.635 0 0 1 .042.128l.018.007c-.662.265.522 1.696.854 1.702.058 0 .108-.009.176.001.122.017.257.069.3.115.522.896.931 1.97 1.37 2.949l.174.247c.108.154.218.438.291.749l.223.805.78-.04c.579.081.891.013.897-.024.017-.12-.333-1.448-.459-1.728-.374-.951-.9-1.866-1.372-2.789l-.238-.428-.237-.428.157-.319c.138-.278.154-.353.126-.588-.018-.149-.066-.32-.107-.38-.026-.038-.01-.072-.026-.105.013-.021-.88-2.047-1.358-1.344-.073.103-.16.151-.265.148-.113-.003-.19.044-.268.165-.08.123-.149.164-.251.15-.192-.024-.273.022-.343.193-.042.103-.108.149-.228.158a.326.326 0 0 0-.32.3z" fill="#b3b31d"/><path d="M35.528 20.469a.693.693 0 0 0 .358.048.707.707 0 0 1 .134 0l.014-.015c.047.712 1.773.027 1.88-.286.02-.056.026-.106.057-.167.054-.11.145-.223.202-.251 1.013-.218 2.162-.276 3.228-.392l.289-.088c.18-.055.484-.072.801-.045l.879.105.486-.607c.257-.524.33-1.013.296-1.03-.109-.053-1.847-.177-2.153-.144-1.02.062-2.054.28-3.077.444l-.48.093-.481.093-.255-.248c-.222-.217-.287-.254-.52-.3-.147-.03-.324-.037-.394-.017-.044.013-.073-.012-.109-.008-.015-.019-2.217.205-1.697.877.075.101.094.199.059.298-.039.106-.017.193.074.306.092.114.11.191.066.284-.083.175-.065.267.076.386.085.073.109.149.08.266a.326.326 0 0 0 .188.397z" fill="#ea7128"/><path d="M41.548 20.185a.684.684 0 0 0 .157-.326.698.698 0 0 1 .041-.128l-.01-.017c.692.175.574-1.678.31-1.878-.047-.035-.092-.057-.142-.104-.088-.086-.168-.207-.176-.27.106-1.031.406-2.141.625-3.19l.005-.303c.003-.188.082-.483.205-.776l.414-.703-.629-.547c-.495-.345-.78-.595-.807-.567-.084.087-.661 1.466-.724 1.767-.256.99-.368 2.04-.53 3.064l-.059.485-.06.486-.314.166c-.275.144-.331.195-.447.402-.073.13-.134.297-.137.37-.001.045-.034.065-.04.1-.024.01-.492 2.173.309 1.885.118-.04.217-.028.3.037.09.069.18.076.314.024.137-.052.217-.045.292.025.14.133.233.144.39.047.095-.059.175-.057.278.006a.326.326 0 0 0 .435-.055z" fill="#3aa4a3"/><path d="M43.139 14.371a.688.688 0 0 0-.261-.25.698.698 0 0 1-.11-.077l-.019.003c.38-.603-1.418-1.064-1.69-.874-.048.033-.082.07-.143.102-.108.058-.249.096-.31.084-.95-.419-1.912-1.047-2.842-1.58l-.286-.099c-.178-.06-.434-.226-.675-.434l-.388-.336-2.443.015c.056.108 1.978 1.814 2.244 1.965.862.551 1.826.982 2.75 1.45l.443.208.445.206.06.35c.051.307.082.376.244.55.101.11.24.22.309.245.043.015.052.053.083.07.002.025 1.915 1.138 1.888.288-.001-.125.041-.215.128-.275.093-.064.128-.146.12-.29-.007-.148.024-.22.114-.27.17-.094.209-.178.165-.357-.026-.108 0-.184.092-.262a.326.326 0 0 0 .082-.432z" fill="#ffc911"/><path d="M35.96 13.57l1.098 1.156.058-.063.334-.358.352.052c.308.045.383.037.599-.063.135-.063.283-.161.327-.219.029-.036.067-.032.093-.057.024.006 1.674-1.469.857-1.707-.12-.037-.192-.105-.221-.207-.033-.108-.1-.166-.24-.203-.142-.038-.202-.09-.221-.192-.036-.19-.105-.254-.29-.267-.11-.008-.174-.057-.219-.168a.326.326 0 0 0-.386-.211.694.694 0 0 0-.317.17.777.777 0 0 1-.109.08l-.002.02c-.457-.548-1.45 1.02-1.354 1.337.018.056.04.1.053.168.02.12.014.265-.016.321-.124.14-.261.274-.397.41z" fill="#45747e"/></svg>