<svg version="1" xmlns="http://www.w3.org/2000/svg" width="933.333" height="933.333" viewBox="0 0 700.000000 700.000000"><path d="M168.7 1.7c-.1.1-23.2.3-51.2.4-28.1.2-52 .5-53.2.7-2.3.4-2.2.5 1.3 7 2 3.6 10 17.2 17.7 30.2C91 52.9 98.1 64.8 99 66.5c1 1.6 8.1 13.6 15.9 26.5 7.7 12.9 14.1 24 14.1 24.6 0 .6-8.4 9.3-18.6 19.5-31.8 31.5-89 89-96.3 96.9-4.4 4.7-6.6 7.7-5.9 8.1.9.6 218.6.6 236 0l3.7-.1-.4-20.3c-.2-11.1-.4-22.5-.4-25.2l-.1-5.1-34.2-.2c-54-.5-72-1.1-77.8-2.7-1-.3 10.4-12.5 32.8-35.1 29.8-30.2 34.1-34.9 33-36.3-.7-.9-1.9-2.7-2.7-4.1-6.6-11.7-16.9-28.9-24.1-40.5-8.4-13.5-12-19.8-12-21 0-.3 32.8-.5 73-.5h72.9v251.7c.1 138.5.1 257.3.1 264V579h86V333l70.3-.1c38.6-.1 72.5-.3 75.2-.5 8.8-.7 26.7-4.6 37.5-8.1 41.1-13.7 75.5-43.7 95-82.8 9-18.2 13.5-32.5 16.6-53 1.6-10.5 1-38.5-1.1-49.6-8.5-46.1-34.8-85.8-73-110.5-23.6-15.2-49-23.8-76.5-26-7-.6-368.8-1.3-369.3-.7zm375.8 44.8c24.5 3.8 47.6 15.6 66.1 34 6.3 6.3 15.6 18 19.2 24.4 4.5 7.9 5.6 10.1 8.2 16.6 6.5 16.4 9 31.1 8.5 49-.5 15.8-.9 18.4-5.1 32.6-12.6 42.4-46.8 73.7-92.4 84.5-6.7 1.6-15 1.8-81.2 2.1l-73.8.4V45l45.3-.2c68.8-.4 93.8 0 105.2 1.7z"/><path d="M455.6 81c-6.6.6-6.6.2.5 6.5 16.6 14.7 21.2 18.6 26.2 22.5 3.1 2.5 5.7 4.7 5.7 5 0 .3-2.6 3.2-5.8 6.3-5.8 5.7-5.8 5.8-7.7 3.7-2.3-2.6-4.9-2.6-7.3 0-1.1 1.1-2.9 2.3-4.2 2.5-1.3.2-3.5 1.6-5 3s-3.8 2.5-5.3 2.5c-1.9 0-3.1.7-3.8 2.4-.6 1.3-2.5 2.8-4.2 3.2-4.3 1.3-5.4 3.4-4.1 8.4.9 3.2.8 4.2-.3 5.2-1.1.9-1.4 2.4-.9 5.4l.5 4.2-7.2 3.5-7.2 3.5-.1 14.5c0 14.3 0 14.5 2 13.7 4.9-1.9 25.4-12.5 29.3-15.2 2.3-1.5 4.6-2.8 5.1-2.8s2.6 3.1 4.6 6.9l3.6 6.9-2.4 1.6c-3 1.9-4.2 5.2-2.5 7.2.6.8 1.2 2.9 1.1 4.7 0 1.8.6 4.2 1.4 5.5 1 1.5 1.3 3.4.9 5.5-.5 2.4-.2 3.7.9 4.6 1 .8 1.6 2.9 1.6 5.2 0 4.5 2.7 6.9 7.7 6.9 1.7 0 3.6.6 4 1.4 1 1.7 5.1 3.8 6.1 3.2 2-1.2 3 .8 6.1 12.9l1 4h13c7.2 0 13.3-.3 13.6-.7.4-.3.1-2.6-.5-4.9-.7-2.4-1.4-5.5-1.6-6.9-.3-1.4-1.6-6-3-10.3-1.4-4.3-2.4-8.4-2.1-9.1.3-.7 2.5-1.6 4.9-2 2.3-.4 5.7-.9 7.5-1.2 2.8-.5 3.2-.3 3.8 2.5.8 3.9 1.7 4.4 8 4.8 2.7.1 7 .5 9.5.8 2.5.3 6.8.5 9.7.5 2.8 0 5.4.4 5.8.9 1.4 2.4 7.1-1.8 8-5.9.4-1.9 1.3-3 2.8-3.2 1.4-.2 2.8-1.6 3.7-3.6l1.5-3.4 7.1.7c3.9.3 8 .7 9.2 1 3.2.6 9.9-8 12.8-16.5 2.6-7.9 2.3-10-1.5-10-1.4-.1-5.3-.4-8.6-.7-3.3-.4-10.3-.7-15.5-.7-5.2-.1-9.8-.6-10.3-1.1-.6-.8-.2-7.2.9-12.5.1-.8.3-1.8.3-2.3.1-.4 1.1-.7 2.4-.7 5 0 6.5-1.1 7.1-5 .3-2 1.3-4.3 2.1-5 .8-.7 1.5-2.4 1.5-3.8s1.1-3.5 2.6-4.9c1.6-1.5 2.4-3.2 2.2-4.6-.1-1.3.5-3.5 1.5-5 .9-1.4 1.7-3.5 1.7-4.5 0-2-4.2-7.2-5.8-7.2-.5 0-.7-1.1-.5-2.4.4-1.8-.3-3.2-2.3-5.1l-2.9-2.7 4.2-7.7 4.2-7.7-2.7-2.1c-1.5-1.2-3.6-3-4.7-4s-5-4-8.8-6.7l-6.7-4.8-3.4 7.4c-2.8 6.1-4.8 11.4-9.1 23.5-.5 1.4-8.3-1.2-13-4.3-2-1.3-2.2-1.9-1.4-4.4 1.2-3.3-.2-7-2.6-7-.8 0-2.2-1.1-3.1-2.6-.9-1.4-3-3.2-4.5-3.9-1.5-.8-3.4-2.7-4.1-4.2-.7-1.6-2.3-2.9-3.5-3.1-1.3-.2-3.2-1.7-4.4-3.4-1.9-2.6-2.6-2.9-5.6-2.5-1.8.3-4 1.3-4.9 2.1-1.8 1.8-3 2-3.9.7-.6-1.1-5.9.2-7.9 1.9-.9.7-1.8.4-3.2-1.1-5.2-5.8-6.9-6.3-20.8-6.4-7.2 0-15.8.2-19 .5zm77.6 56.2c9.5 4.2 9.7 4.4 10.4 8.3.4 2.2.9 4.3 1 4.7.1.5.2 1.2.3 1.8 0 .5 1.4 2.4 3 4.2l2.9 3.3-1.3 10.5c-.8 5.8-1.8 10.6-2.2 10.8-3.6 1.3-10.3 6.6-11.4 9.1-1.4 3.2-2 3.5-7.9 4.5-1.9.3-4.6.8-6 1.1-8.8 1.8-8.9 1.8-13.4-2.3-2.8-2.6-5.5-4.1-8.2-4.5-3.7-.7-4.1-1.1-9.1-10.2l-5.2-9.4 2.4-5.3c1.8-3.9 2.3-6.4 2-9.3-.5-3.8-.3-4.3 6.7-11.8l7.4-7.8 5.9.5c4.1.4 6.9.2 9-.8 1.7-.8 3.2-1.5 3.5-1.5.2-.1 4.8 1.8 10.2 4.1zM308.5 605.8c-.3.3 6.8 16.4 14 31.7 2.2 4.8 4.5 9.8 9.5 21 1.3 2.7 5.1 11.1 8.5 18.5 3.4 7.4 7 15.4 8 17.7 1 2.4 2.1 4.3 2.5 4.3.3 0 1.9-3 3.5-6.8 1.6-3.7 5.3-11.8 8.2-17.9 2.9-6.2 5.3-11.5 5.3-11.7 0-.2 2-4.6 4.3-9.8 10.9-23.4 20.9-45.8 20.8-46.5-.1-.7-83.8-1.2-84.6-.5z"/></svg>