<svg xmlns="http://www.w3.org/2000/svg" xmlns:xlink="http://www.w3.org/1999/xlink" width="569.08" height="1121.383" viewBox="0 0 426.81 841.037" version="1.2"><defs><symbol overflow="visible" id="v"><path d="M7.297 0H6.14L1.937-6.516h-.046c.007.25.023.57.046.954.032.375.047.765.047 1.171V0h-.921v-7.86h1.156l4.187 6.5h.047a7.865 7.865 0 0 1-.031-.515 36.634 36.634 0 0 1-.047-1.547v-4.437h.922zm0 0"/></symbol><symbol overflow="visible" id="w"><path d="M7.078 0h-1v-3.656H2.062V0h-1v-7.86h1v3.329h4.016V-7.86h1zm0 0"/></symbol><symbol overflow="visible" id="x"><path d="M5.422-6.016c0 .532-.152.954-.453 1.266-.293.305-.684.508-1.172.61v.046c.625.074 1.094.274 1.406.594.313.324.469.746.469 1.266 0 .46-.11.867-.328 1.218-.211.356-.54.633-.985.829-.437.195-1.007.296-1.703.296A6.4 6.4 0 0 1 1.5.016a3.849 3.849 0 0 1-1-.329v-.906c.32.168.676.297 1.063.39a5 5 0 0 0 1.093.126c.707 0 1.219-.133 1.531-.406.313-.282.47-.66.47-1.141 0-.488-.196-.844-.579-1.063-.387-.218-.93-.328-1.625-.328h-.765v-.828h.78c.645 0 1.134-.133 1.47-.406.332-.27.5-.629.5-1.078 0-.375-.133-.664-.391-.875-.262-.219-.61-.328-1.047-.328-.43 0-.793.062-1.094.187-.293.125-.59.29-.89.485L.53-7.156a3.94 3.94 0 0 1 1.047-.563c.414-.164.883-.25 1.406-.25.82 0 1.43.188 1.829.563.406.367.609.828.609 1.39zm0 0"/></symbol><symbol overflow="visible" id="b"><path d="M5.703 3.063l-.64 1.718c-.282.75-.606 1.274-.97 1.578-.366.301-.823.348-1.374.141-.344-.125-.602-.328-.766-.61-.156-.28-.203-.624-.14-1.03l-.047-.016a2.149 2.149 0 0 1-.47.61 1.318 1.318 0 0 1-.64.312c-.23.039-.5.004-.812-.11-.551-.21-.906-.554-1.063-1.031-.164-.48-.125-1.047.125-1.703l.782-2.11zM2.86 2.874l-.421 1.11c-.188.507-.235.89-.141 1.14.094.258.305.453.64.578.333.125.614.098.844-.078.227-.18.438-.523.625-1.031l.375-1zm-.625-.234L.047 1.812l-.453 1.22c-.196.519-.227.925-.094 1.218.125.29.355.5.688.625.312.125.601.113.875-.031.28-.149.523-.496.734-1.047zm0 0"/></symbol><symbol overflow="visible" id="c"><path d="M4.875 3.078a2.636 2.636 0 0 1-.063.563l-.734-.11c.031-.086.05-.172.063-.265.007-.094.015-.18.015-.25 0-.25-.07-.485-.203-.704a1.404 1.404 0 0 0-.547-.53 1.815 1.815 0 0 0-.844-.188l-2.578-.032V.766l4.829.062v.64l-.891.079v.031c.27.156.492.36.672.61.187.257.281.554.281.89zm0 0"/></symbol><symbol overflow="visible" id="d"><path d="M6.719-.469a.416.416 0 0 1-.047.328c-.055.118-.168.192-.344.235-.156.039-.289.023-.39-.047a.479.479 0 0 1-.204-.266.471.471 0 0 1 .047-.36.537.537 0 0 1 .328-.218c.176-.039.313-.031.407.031a.459.459 0 0 1 .203.297zM5.062.344L.375 1.516.187.75 4.875-.422zm0 0"/></symbol><symbol overflow="visible" id="e"><path d="M.5 2.406C.352 1.832.441 1.32.766.875c.32-.45.882-.773 1.687-.969.8-.195 1.445-.172 1.938.078.5.239.828.649.984 1.235.082.363.082.676 0 .937a2.197 2.197 0 0 1-.328.688l.016.047a2.64 2.64 0 0 1 .312-.125 7.8 7.8 0 0 1 .36-.094l1.874-.469.188.766-6.64 1.656L1 4l.594-.266v-.03a1.658 1.658 0 0 1-.657-.438c-.199-.2-.343-.485-.437-.86zm.672-.031c.125.5.348.813.672.938.32.132.758.132 1.312 0l.125-.032c.594-.148 1.02-.355 1.281-.625.258-.261.32-.652.188-1.172-.105-.418-.352-.687-.734-.812C3.64.547 3.176.55 2.625.687c-.563.133-.977.344-1.234.625-.25.29-.325.645-.22 1.063zm0 0"/></symbol><symbol overflow="visible" id="f"><path d="M5.36 1.203c.081.313.093.602.03.875a1.708 1.708 0 0 1-.359.766l.016.047.64-.047.157.61L1.078 4.64c-.668.165-1.207.118-1.625-.14-.426-.25-.734-.734-.922-1.453-.164-.688-.203-1.274-.11-1.75l.704-.188c-.133.52-.113 1.13.063 1.829.105.406.304.69.593.859.281.164.63.195 1.047.094l.188-.047c.07-.012.171-.031.296-.063a1.44 1.44 0 0 1 .282-.047v-.03C1.03 3.491.672 3.065.516 2.421.359 1.816.453 1.289.796.844c.345-.438.895-.75 1.657-.938.75-.187 1.383-.164 1.906.063.52.226.852.64 1 1.234zm-.61.266a1.084 1.084 0 0 0-.703-.797C3.68.535 3.207.539 2.625.687c-.574.145-.984.36-1.234.641-.243.29-.313.64-.22 1.047.126.477.337.79.641.938.301.156.739.164 1.313.03l.172-.046c.644-.168 1.078-.399 1.297-.688.218-.28.27-.664.156-1.14zm0 0"/></symbol><symbol overflow="visible" id="g"><path d="M5.453 1.094A2.1 2.1 0 0 1 5.5 2.187a1.605 1.605 0 0 1-.516.876c-.261.238-.605.421-1.03.546l-.438.141-.97-3.156c-.523.164-.882.422-1.077.765-.2.344-.23.743-.094 1.204.094.289.203.539.328.75.125.207.274.421.453.64l-.672.203a5.035 5.035 0 0 1-.437-.64 4.394 4.394 0 0 1-.328-.797 2.7 2.7 0 0 1-.078-1.25c.082-.387.27-.727.562-1.016.29-.281.692-.5 1.203-.656.508-.156.969-.203 1.375-.14.414.054.766.202 1.047.452.29.25.5.579.625.985zm-.61.187C4.728.906 4.52.645 4.22.5 3.926.363 3.57.336 3.156.422l.703 2.36c.383-.118.672-.305.86-.563.195-.25.238-.563.125-.938zm0 0"/></symbol><symbol overflow="visible" id="a"><path d="M.406 0l1.516-7.14h3.625l-.172.796H2.641l-.532 2.532h2.563l-.172.796H1.937L1.297 0zm0 0"/></symbol><symbol overflow="visible" id="h"><path d="M1.938.094C1.5.094 1.144-.055.875-.36c-.262-.313-.39-.77-.39-1.375 0-.5.062-.973.187-1.422.133-.446.316-.844.547-1.188.226-.343.504-.613.828-.812.32-.196.676-.297 1.062-.297.352 0 .641.094.86.281.219.18.379.39.484.64h.063l.312-.827H5.5L4.36 0h-.704l.14-.984H3.75c-.23.293-.5.546-.813.765a1.71 1.71 0 0 1-1 .313zm.28-.719c.239 0 .477-.086.72-.266.238-.187.453-.43.64-.734.195-.3.348-.645.453-1.031.04-.188.07-.364.094-.531a3.9 3.9 0 0 0 .031-.47c0-.312-.09-.566-.265-.765a.866.866 0 0 0-.688-.297c-.262 0-.5.086-.719.25a2.063 2.063 0 0 0-.578.672 3.67 3.67 0 0 0-.39.969c-.094.355-.141.73-.141 1.125 0 .355.07.625.219.812.144.18.351.266.625.266zm0 0"/></symbol><symbol overflow="visible" id="i"><path d="M2.469.094c-.594 0-1.074-.164-1.438-.5-.367-.332-.547-.832-.547-1.5 0-.477.063-.93.188-1.36.133-.425.32-.8.562-1.125.239-.332.532-.593.875-.78a2.45 2.45 0 0 1 1.172-.282 3.2 3.2 0 0 1 .688.078c.226.043.441.102.64.172l-.25.734a3.606 3.606 0 0 0-.484-.172 2.11 2.11 0 0 0-.578-.078c-.387 0-.727.133-1.016.39-.281.25-.508.59-.672 1.016-.156.43-.234.899-.234 1.407 0 .406.102.726.313.953.207.219.5.328.875.328.226 0 .445-.031.656-.094.219-.062.426-.14.625-.234v.734A2.742 2.742 0 0 1 3.219 0c-.23.063-.48.094-.75.094zm0 0"/></symbol><symbol overflow="visible" id="j"><path d="M1.89.094c-.406 0-.734-.11-.984-.328-.242-.227-.36-.563-.36-1 0-.145.009-.286.032-.422a5.57 5.57 0 0 0 .078-.438l.703-3.265h.891l-.719 3.375a3.301 3.301 0 0 0-.093.671c0 .211.05.375.156.5.113.125.297.188.547.188.226 0 .472-.078.734-.234.258-.164.504-.426.734-.782.227-.351.407-.82.532-1.406l.484-2.312H5.5L4.36 0h-.72l.11-.984h-.047a3.774 3.774 0 0 1-.453.5 2.266 2.266 0 0 1-.594.421c-.23.102-.484.157-.765.157zm0 0"/></symbol><symbol overflow="visible" id="k"><path d="M.266 0L1.89-7.594h.875L1.156 0zm0 0"/></symbol><symbol overflow="visible" id="l"><path d="M1.844.094c-.356 0-.657-.086-.907-.25-.25-.176-.375-.477-.375-.906 0-.22.032-.458.094-.72l.61-2.905H.437l.079-.407.906-.375.625-1.11h.515l-.265 1.22H3.64l-.141.671H2.156l-.61 2.922a3.233 3.233 0 0 0-.062.297 1.348 1.348 0 0 0-.03.297c0 .156.038.29.124.39.082.106.219.157.406.157.114 0 .227-.008.344-.031.113-.02.235-.051.36-.094v.672a1.539 1.539 0 0 1-.376.11 2.146 2.146 0 0 1-.468.062zm0 0"/></symbol><symbol overflow="visible" id="m"><path d="M-.25 2.406c-.156 0-.285-.011-.39-.031a3.137 3.137 0 0 1-.297-.078v-.703c.093.02.195.039.296.062.106.02.22.032.344.032.262 0 .488-.086.688-.25.195-.168.379-.415.546-.735l.36-.625-.813-5.437h.875l.344 2.656c.04.219.067.453.078.703.02.25.035.492.047.719.008.23.016.418.016.562h.031c.04-.101.102-.258.188-.469.093-.218.19-.44.296-.671.114-.227.211-.414.297-.563l1.547-2.937h.953L1.75.906c-.273.5-.559.875-.86 1.125-.292.25-.671.375-1.14.375zm0 0"/></symbol><symbol overflow="visible" id="n"><path d="M.406 0l1.516-7.14h1.562c1.47 0 2.204.605 2.204 1.812 0 .512-.137.96-.407 1.344-.273.375-.73.652-1.375.828L5.094 0h-.985L3.094-2.953H1.922L1.297 0zm1.672-3.703h.781c.664 0 1.149-.145 1.454-.438.3-.289.453-.664.453-1.125 0-.406-.118-.687-.344-.843-.23-.164-.57-.25-1.016-.25h-.75zm0 0"/></symbol><symbol overflow="visible" id="o"><path d="M2.422.094c-.625 0-1.106-.176-1.438-.531-.336-.364-.5-.86-.5-1.485 0-.426.055-.848.172-1.266a4.25 4.25 0 0 1 .531-1.14 2.74 2.74 0 0 1 .86-.813 2.06 2.06 0 0 1 1.11-.312c.507 0 .89.11 1.14.328.258.219.39.527.39.922 0 .344-.109.664-.328.953-.21.281-.546.512-1.015.688-.461.167-1.055.25-1.781.25H1.39a.909.909 0 0 0-.016.187v.172c0 .406.094.73.281.969.196.242.504.359.922.359.25 0 .488-.035.719-.11.226-.07.476-.175.75-.312v.75a6.006 6.006 0 0 1-.75.281 3.15 3.15 0 0 1-.875.11zm-.906-3.125h.078a5.92 5.92 0 0 0 1.093-.094c.344-.07.618-.191.829-.36a.797.797 0 0 0 .312-.656.55.55 0 0 0-.172-.421c-.117-.114-.297-.172-.547-.172-.324 0-.636.152-.937.453-.293.293-.512.71-.656 1.25zm0 0"/></symbol><symbol overflow="visible" id="p"><path d="M1.547.094A3.55 3.55 0 0 1 .687 0a3.225 3.225 0 0 1-.64-.234v-.813a3.2 3.2 0 0 0 .64.297c.27.086.547.125.829.125.394 0 .695-.07.906-.219a.731.731 0 0 0 .312-.61.643.643 0 0 0-.203-.484c-.125-.132-.36-.3-.703-.5-.375-.207-.664-.425-.86-.656-.187-.226-.28-.508-.28-.844 0-.457.16-.82.484-1.093.332-.282.773-.422 1.328-.422.32 0 .617.039.89.11.282.073.524.155.735.25l-.281.702a4.194 4.194 0 0 0-.594-.218c-.21-.07-.46-.11-.75-.11-.293 0-.523.07-.688.203a.65.65 0 0 0-.25.532c0 .168.055.32.172.453.114.125.348.289.704.484.226.137.43.274.609.406a1.5 1.5 0 0 1 .422.454c.101.18.156.39.156.64 0 .543-.188.953-.563 1.234-.374.274-.882.407-1.515.407zm0 0"/></symbol><symbol overflow="visible" id="q"><path d="M2.125-6.25a.485.485 0 0 1-.344-.125c-.086-.082-.125-.195-.125-.344a.74.74 0 0 1 .14-.453c.102-.125.25-.187.438-.187.313 0 .47.152.47.453 0 .21-.063.37-.188.484a.535.535 0 0 1-.391.172zM.281 0l1.14-5.36h.876L1.157 0zm0 0"/></symbol><symbol overflow="visible" id="r"><path d="M1.938.094C1.5.094 1.144-.055.875-.36c-.262-.3-.39-.757-.39-1.374 0-.477.054-.942.171-1.391a4.14 4.14 0 0 1 .531-1.188 2.63 2.63 0 0 1 .829-.828c.32-.207.687-.312 1.093-.312.364 0 .649.094.86.281.219.18.379.39.484.64h.063c.03-.226.062-.44.093-.64.032-.207.07-.43.125-.672l.36-1.75h.875L4.359 0h-.718l.109-.984h-.047a4.749 4.749 0 0 1-.797.765 1.57 1.57 0 0 1-.969.313zm.296-.719c.22 0 .438-.082.657-.25.226-.164.437-.383.625-.656a3.6 3.6 0 0 0 .468-.969c.125-.363.188-.742.188-1.14 0-.32-.078-.583-.234-.782-.157-.195-.415-.297-.766-.297-.274 0-.516.09-.735.266-.21.168-.398.398-.562.687a4.103 4.103 0 0 0-.375.97 4.628 4.628 0 0 0-.125 1.093c0 .719.285 1.078.86 1.078zm0 0"/></symbol><symbol overflow="visible" id="s"><path d="M.234.031L1.391-5.39h.78l-.108.985c.124-.157.269-.317.437-.485a2.17 2.17 0 0 1 .594-.421c.226-.114.488-.172.781-.172.426 0 .766.12 1.016.359.25.23.375.559.375.984 0 .157-.016.313-.047.47-.024.155-.043.296-.063.421L4.438.031H3.5l.719-3.406c.031-.145.05-.27.062-.375.02-.102.032-.203.032-.297 0-.426-.227-.64-.672-.64-.23 0-.477.078-.735.234-.25.156-.492.406-.719.75-.218.344-.386.812-.5 1.406l-.5 2.328zm0 0"/></symbol><symbol overflow="visible" id="t"><path d="M-.563 0l3.875-7.14h.938L5.125 0H4.25l-.266-2.219H1.563L.405 0zM2-3.016h1.89l-.156-1.5c-.03-.257-.058-.539-.078-.843-.023-.301-.039-.57-.047-.813h-.03c-.106.25-.231.524-.376.813-.137.293-.281.586-.437.875zm0 0"/></symbol><symbol overflow="visible" id="u"><path d="M.281 0l1.14-5.36h.72l-.11.985h.047c.145-.176.29-.348.438-.516.156-.164.328-.3.515-.406.196-.101.422-.156.672-.156.094 0 .192.008.297.016.102 0 .203.015.297.046l-.203.797a2.363 2.363 0 0 0-.5-.062c-.336 0-.633.11-.89.328-.263.219-.481.5-.657.844a4.1 4.1 0 0 0-.36 1.03L1.157 0zm0 0"/></symbol></defs><use height="100%" width="100%" y="552.507" x="150.426" xlink:href="#a" transform="translate(-2007.31 -28.69)" fill="#0a8214"/><path d="M5.051 819.785L73.288 839.8l40.316-29.808 69.773.683 26.83-36.258 18.444-31.765 57.902-55.254 34.356-109.774 35.14-1.535 11.586-8.949.836-49.41 36.293-54.129 20.664-35.609-21.445-24.086L288 13.206c-13.055 6.011-22.54 23.042-40.082 15.2L234.682 8.058c-33.5-9.885-51.73-3.604-65.449 7.457l9.492 27.81-16.953 60.706-20.64 29.234-19.38 35.207-27.472-6.789c-9.865 22.712-17.77 45.746-39.684 66.477l.68 33.238-35.949 53.578 64.101 179.41-1.019 18.32-33.235 62.4-4.922 61.987L54.526 767.98z" fill="#aed581" fill-rule="evenodd" stroke="#fff176" stroke-width="2.25"/><path d="M83.295 615.304l17.872 149.211 12.804-.43-1.144-66.386-6.993-6.223 1.036-55.184 14.25-.777 5.957 36.012 23.578-1.035 1.035-22.02-16.582-2.594-2.07-32.648zm0 0" fill="#dedede" fill-rule="evenodd" stroke="#b8b8b8" stroke-width=".7"/><path d="M342.495 446.746l5.195 5.726 10.086 14.567 16.043-6.477-4.699-21.426-8.75-9.922-5.469-1.75-2.008-1.066-1.75-3.414-.309-4.395-3.359 3.813-2.055 2.726 1.817 7.145-4.637 1.488zm0 0" fill="#00d455" fill-rule="evenodd"/><path d="M164.756 741.898l11.52 11.95 16.648-53.349-10.672-3.843zm0 0" fill="#dedede" fill-rule="evenodd" stroke="#b8b8b8" stroke-width=".7"/><path d="M313.323 419.003l7.344 10.973 3.398 11.797 1.68 1.36 9.566-9.169-19.336-17.215zm0 0" fill="#eee" fill-rule="evenodd" stroke="#9e6e6e" stroke-width=".3"/><g fill-rule="evenodd"><path d="M101.804 523.652l17.39 8.235 7.989 3.785 27.324 31.441 58.7-93.531-21.645-13.86-25.188-8.593-34.11 44.285-13.863-1.453zm0 0" fill="#defae1" stroke="#0c9917" stroke-width=".3"/><path d="M101.804 523.652l17.39 8.235 14.754-28.746-15.547-9.18zm23.972-.945l15.418 8.023 6.133-10.851-15.101-8.18zm22.18 26.903l8.653 5.027 10.222-16.356-8.648-3.933zm0 0" fill="#a8deca" stroke="#68b899" stroke-width=".5"/></g><path d="M165.241 651.706l2.558 22.192 21.341-7.254 18.773 2.562 4.27-12.804 22.194 8.105 4.692-29.867-56.762-13.664-5.973 19.207 4.27 7.68zm64.332-411.628l.554 1.128 1.797 1.047 3.246-3.51.805.741-2.754 2.972 14.54 13.438 1.972-2.14 1.63 1.511 6.604-7.148 3.31 3.054 11.675-12.64 2.304 2.133 10.321-11.165 1 .926 2.148-2.32-10.43-9.645 3.352-3.62-11.172-10.32-1.848 2.011-1.214-1.125.285-.309-7.598-7.023-2.586 2.793 1.387 1.273-.43.47-.8-.743-8.294 8.976-2.289-2.113-11.53 12.484-1.09-1.008-2.708 2.93 8.946 8.266 11.671-12.629 4.715 4.355-4.008 4.34 7.602 7.024 4.102-4.442 1.425 1.321-14.285 15.457-12.269-11.336-2.45 2.652-.617-.563 1.117-1.207-.687-1.32-1.852-1.03zm27.387-21.77l9.055-9.8 2.714 2.507-9.055 9.801zm10.812 10.898l1.371-1.492-.875-.804 7.844-8.48 4.32 3.995-1.683 1.817-.95-.875-7.535 8.144zm-67.844-124.738l16.321 48.711 15.546-34.719-12.179-16.839 3.375-11.14-6.223-8.29zM309.32 362.347l9.011 10.117 35 35.875 11.066-11.605-44.766-44.98zm-52.728 92.333l7.504 7.218 3.84-3.98 1.774 1.71 1.036-1.078 3.292 3.164 22.507-23.398-3.886-3.73.907-6.645-5.993-5.766-8.637 8.981-4.844-4.664-4.949 5.144-1.859-1.789-3.774 3.914 2.903 2.793-2.309 2.078-.835 2.246.898 1.88 2.128 1.831zM109.205 297.07l-2.323 2.215-1.3-1.364-21.177 20.145 4.707 4.95 1.882-1.798 11.646 12.251-1.915 1.82 4.97 5.226 2.472-2.347 1.25 1.32 3.355-3.199-1.484-1.559 15.378-14.632-1.175-1.24 2.991-2.847-2.402-2.523-2.988 2.848-14.01-14.73 2.326-2.213zm.05 14.691l4.08 4.29-8.72 8.29-4.083-4.29zm29.77 16.086l-3.395 3.231-1.8-1.898-3.122 2.967-2.674-2.808-10.044 9.551 4.48 4.7-4.046 3.85 5.112 5.38 5.845-5.555 1.561 1.64 9.263-8.808-1.563-1.645 5.496-5.226zm-39.754 12.067l-5.105 4.852.703.741-12.067 11.472-.296-.304-5.29 5.031 4.453 4.681 2.22-2.107 13.081 13.758-2.496 2.376 4.136 4.351 5.004-4.754-.659-.69 12.964-12.329.164.175 4.65-4.422-4.34-4.559-1.13 1.071-13.02-13.695 1.263-1.195zm.754 16.304l4.31 4.535 1.983-1.887 1.191 1.254-2.12 2.016-.547-.575-5.145 4.892.2.206-1.242 1.181-.434-.462.738-.71-4.863-5.114-.684.652-.872-.905 5.263-5.004 1.02 1.07zm31.137 16.317l-3.058 2.91-1.372-1.446-2.235 2.126-2.96-3.114-11.426 10.863 4.5 4.734-3.626 3.45 5.325 5.602 6.164-5.864 1.437 1.516 9.697-9.223-2.14-2.25 4.487-4.27zm-53.351-121.77l5.488 2.977.72-1.325 1.167.633.59-1.09 2.504 1.356 16.867-30.535-1.789-.969 1.363-2.52-1.273-.69 5.781-10.657.613-.449.75-.05 4.297 2.336.692-1.282 5.828 3.16-1.168 2.141 19.863 10.777 1.441-2.656 1.793.977 2.4-4.434-1.958-1.066.726-1.34-5.125-2.777-.312.578-14.457-7.84-.422.781-1.449-.789.301-.559-4.926-2.675-.3.558-1.337-.715.703-1.296-2.93-1.586-2.257 4.164-2.703-1.473-1.348 2.484-4.074-2.207-7.344 13.543 1.047.567-14.617 26.965-1.055-.575zM187.077 53.601l8.777 3 7.203-21.039 3.473-2.125 17.226 5.898 5.844-17.082-14.335-4.644-2.364 6.91-18.433-6.313-1.937 5.657.933.324-1.699 4.973-.473-.157-1.574 4.598 4.242 1.453-.695 2.024-.473-.164-2.676 7.828.548.183-.539 1.571-.547-.184-1.543 4.504.647.223-.6 1.75-.646-.223zm111.125 147.52l6.13 20.878-5.262 1.543 6.18 21.047 6.292-1.847-1.036-3.532 10.426-3.062-1.012-3.434 8.403-2.468-3.242-11.047-6.375 1.871-.469-1.602 3.04-.89-5.887-20.039-3.484 1.027-1.16-3.957-2.286.672 3.082 10.492.426-.129.691 2.36-.426.128 2.462 8.371-4.903 1.442-4.747-16.168-1.988.574-.276-.949 4.647-1.37-.707-2.41zM223.26 328.246l12.192 12.882 17.836-16.879 13.632-12.894-6.78-7.168-3.735 3.527-2.473-2.613-3.03 2.86-2.927-3.087zM143.866 197.93l17.515.323-.113 6.356 1.324.02-.04 2.375-1.324-.03-.187 10.266 6.128.113.356-19.285 5.527.101.301-16.574.484-.437.05-2.778-.594-.617-5.046-.09-1.063 1.028-.05 2.593h-.422l-.297 16.036-4.55-.08.03-1.653-.609-.01.175-9.825-2.097-.04.29-15.808 2.75.05.07-4.117-6.993-.133-.03 1.524-4.852-.09-.34 18.617 4.852.09-.07 4.09-1.683-.02.03-1.44-9.34-.169zm89.765 216.593l1.2 29.223 16.515-1.96-1.375-38.083-14.632 2.246zm41.669-16.098l10.636 9.774 26.922-27.348-10.566-10.285zm0 0" fill="#d9cfc7" fill-rule="evenodd" stroke="#b8a89c" stroke-width=".75"/><path d="M280.011 469.57l14.513 12.263 22.086-24.152-13.833-11.974z" fill="#d9cfc7" fill-rule="evenodd" stroke="#b8a89c" stroke-width=".796"/><path d="M244.924 343.09l10.072 10.288 27.23-26.66-10.075-10.289zm-5.718 33.714l18.347 20.2 15.102-12.544-18.895-20.527zm67.129 29.031l26.132 24.977 9.59-10.34.555-.6-26.637-25.126zm-25.665-96.793l26.278 25.25 8.798-10.378-25.55-24.985zm-73.593 76.684l10.75 10.828 21.324-23.019-9.566-8.809zm33.16-249.289l6.26 3.141 20.451-40.782-6.262-3.132zm23.313 221.336l14.575 14.66 10.608-10.543-14.577-14.664zm.855 288.668l7.394 5.187L288 631.816l-.157-6.293-8.34-1.57-5.66 7.23 1.727 6.45zM200.073 76.488l11.715.933.727-9.129-3.723-.296 1.31-16.379-7.99-.64-.55 6.901.828.07-.309 3.89-.83-.07-.249 3.082.33.03-.103 1.293-.332-.03zm-16.535 661.293l5.5 1.535.257-.906 2.364.66 1.2-4.28.62.17 1.074-3.824-2.992-.84.297-1.05 3.168.886 1.31-4.656-.77-.215 1.2-4.273-2.404-.68.708-2.519-5.504-1.54zM250.01 87.394l8.15 4.68 9.714-16.926-5.848-3.359-8.277 14.41-2.293-1.32zm-96.764 698.578l4.12 1.41.297-.863 2.785.95 2.164-6.309-4.16-1.43.976-2.852 4.371 1.504 2.004-5.843-2.996-1.028.396-1.137-4.129-1.414-1.896 5.532-1.932-.66-1.904 5.57 1.926.66zm0 0" fill="#d9cfc7" fill-rule="evenodd" stroke="#b8a89c" stroke-width=".75"/><path d="M283.066 294.027l2.108 2.285 2.74-2.52 2.397 2.606 1.012-.926.961 1.043-1.82 1.68 4.878 5.297 1.817-1.684 2 2.172 3.441-3.18-12.34-13.394zM243.112 82.972l5.492 3.113 9.661-17.039-5.489-3.113zm0 0" fill="#d9cfc7" fill-rule="evenodd" stroke="#b8a89c" stroke-width=".75"/><path d="M304.883 505.316l8.417 8.92 6.32-5.962-.547-.579 9.084-8.572-7.036-7.45-10.194 9.603-.828-.878zm0 0" fill="#d9cfc7" fill-rule="evenodd" stroke="#b8a89c" stroke-width="1.06"/><path d="M275.237 344.531l4.605 4.707 12.52-12.262-4.606-4.707zm13.07-61.539l7.492 7.812 7.508-7.199-7.496-7.809zM176.085 765.206l5.871 1.79 5.671-18.633-5.035-1.535-3.526 11.593-.837-.254zm83-586.256l13.835 4.042 1.641-5.614-13.836-4.047zm8.441-56.994l7.16 3.477 2.68-5.519-2.039-.989 1.754-3.617-5.12-2.484zM230.015 76.43l.566 3.32 3.281 2.796 1.598-.28 2.415-3.274-.603-3.48-3.183-2.036-1.727.297zm32.445 109.398l5.777 4.058 2.984-4.25-5.78-4.058zM223.3 69.015l.785 8.324 3.14-.3-.784-8.32zm54.117 227.219l1.84 2 2.637-2.438-1.84-1.992zm0 0" fill="#d9cfc7" fill-rule="evenodd" stroke="#b8a89c" stroke-width=".75"/><path d="M276.92 380.214l-3.722 9.274-1.86 2.875-12.578 11.633-6.289-1.922" fill="none" stroke="#fff" stroke-width="2.25" stroke-linecap="round" stroke-linejoin="round"/><path d="M273.686 251.71l16.766 17.864" fill="#81c784" stroke="#fff" stroke-width="2.25" stroke-linecap="round" stroke-linejoin="round"/><path d="M352.745 471.808l-14.12-14.012-22.087-12.355-5.364-17.762-17.343-11.402M58.335 795.86l-3.809-27.88" fill="none" stroke="#bababa" stroke-width="6" stroke-linecap="round" stroke-linejoin="round"/><path d="M271.338 392.363l-3.324 18.59-4.558 6.453-1.887 7.234 2.2 3.617m-12.302-155.722l22.22-20.825 10.046-7.234 4.113.855m-133.82 511.122l8.586 3.453 10.312 1.68 2.461-1.282 1.543-6.144 6.887-21.922 8.703-27.563 7.027-.168 5.512.485 11.274 2.156 6.234.242 5.992-2.64 16.535-9.438m56.336-131.547l3.715 7.332-11.48 25.953-5.82 28.473M33.233 300.738l9.195-.883 4.41.344 5.086 2.371 3.391-1.692.68-4.41-.34-8.137v-5.765l2.035-5.43 3.394-3.73 3.387-2.37 2.375-4.755 1.356-8.48.34-7.118 2.035-5.086 32.558-59.35m-17.461-6.751l17.461 6.75m0 0l11.532 1.691 8.816-4.406 8.141-5.426 6.781-8.48 4.07-11.532 1.021-6.78 4.745-6.446 8.82-3.39m4.832 4.554l-3.48 10.371.1 7.355" fill="none" stroke="#fff" stroke-width="2.25" stroke-linecap="round" stroke-linejoin="round"/><path d="M205.893 189.64l-6.44-7.469-13.568-13.562-19.453-18.305-4.539-4.273-4.832-4.555-9.16-7.117-6.77-1.094" fill="none" stroke="#fff" stroke-width="2.25" stroke-linecap="round" stroke-linejoin="round"/><path d="M157.061 141.476l10.895-9.68 6.605-9.28" fill="#81c784" stroke="#fff" stroke-width="2.25" stroke-linecap="round" stroke-linejoin="round"/><path d="M242.53 181.36l-4.909-3.646.678-4.754-2.062-8.32.664-5.44 2.42-10.54-2.026-7.942-6.214-5.46-5.344-1.364m-59.305 16.41l5.77-10.953 2.36-16.836 22.862-16.105" fill="none" stroke="#fff" stroke-width="2.25" stroke-linecap="round" stroke-linejoin="round"/><path d="M233.374 183.054l-4.75-3.394-11.532-18.649-4.07-8.48-9.496-30.524-3.39-9.832-2.71-5.765-6.446-6.789-3.734-5.422-.672-4.75 1.011-6.442 3.395-8.144 3.051-11.524 7.144-15.054m24.235 3.605l7.12 10.852 4.07 1.015 6.442-1.359 7.125-1.348 12.378 4.395 8.043 13.543-2.449 14.957-1.695 9.496-11.53 22.723-11.193 22.718-5.086 9.496-1.355 7.125 1.02 7.457 5.421 8.141 3.56 2.523m8.151-153.457l1.172 9.493 10.852 6.445 15.258 5.766 13.566 9.835 3.73 5.426-3.73 7.121-7.12 4.411-10.173 4.746-6.035-2.899-2.363-1.523m-16.653 245.566l-13.328 14.07 4.852 11.286 15.265 11.004 16.195 19.3m98.891 93.149l2.92-4.754-.142-6.438-1.589-7.465-4.724-14.347-5.543-11.856-9.406-7.543-5.016-5.613-31.57-33.457" fill="none" stroke="#fff" stroke-width="2.25" stroke-linecap="round" stroke-linejoin="round"/><path d="M312.104 300.128l5.31 3.051 3.565-6.215-5.309-3.047zm0 0" fill="#d9cfc7" fill-rule="evenodd" stroke="#b8a89c" stroke-width=".75"/><path d="M287.846 245.331l6.235-11.07" fill="#81c784" stroke="#fff" stroke-width="2.25" stroke-linecap="round" stroke-linejoin="round"/><path d="M294.081 234.261l1.543-5.855-.219-2.496-4.528-4.633-20.277-21.824-12.012-9.883-11.308-5.946-4.75-2.265-9.156 1.695" fill="none" stroke="#fff" stroke-width="2.25" stroke-linecap="round" stroke-linejoin="round"/><path d="M305.022 365.664l-8.683 5.14-11.973 6.031-7.446 3.38" fill="#81c784" stroke="#fff" stroke-width="2.25" stroke-linecap="round" stroke-linejoin="round"/><path d="M301.98 438.945l-3.605-4.176-4.544-18.492 6.094-11.395 20.816-22.992" fill="none" stroke="#bababa" stroke-width="6" stroke-linecap="round" stroke-linejoin="round"/><path d="M352.745 471.808l-6.442-4.41-8.476-1.699-6.45.68-6.44 5.765-9.5 14.922-15.935 14.582-20.347 10.855-19.176 5.79-13.387 4.046-13.566 1.016-9.156-2.715-5.8-11-2.732-5.465.853-8.195 1.69-34.387 2.211-19.3-1.312-14.575.324-6.69.02-2.47-.447-6.547-.226-3.285-3.055-8.48-17.488-24.59-.543-5.46-.5-6.642 2.367-9.3 5.985-23.532L217.9 314.77l8.438-38.922-1.008-12.148 2.222-37.114-1.678-14.765-9.458-11.672-5.09-4.067-5.43-6.44" fill="none"/><path d="M254.17 442.156l-1.359-34.934-.34-5.148" fill="none" stroke="#bababa" stroke-width="2.25" stroke-linecap="round" stroke-linejoin="round"/><path d="M277.124 463.816l24.855-24.87" fill="none" stroke="#bababa" stroke-width="6" stroke-linecap="round" stroke-linejoin="round"/><path d="M217.897 314.77l4.957.01 4.411-2.036 4.714-3.57 1.848-6.466-.83-6.925 1.724-2.368 12.375-.324 14.42 3.711 2.713-2.715 1.852-5.153-14.613-16.4" fill="#81c784" stroke="#fff" stroke-width="2.25" stroke-linecap="round" stroke-linejoin="round"/><path d="M64.471 271.035l7.125 5.765 7.121.336 7.457-3.394 5.43-1.696 6.441-3.05 4.75-6.106v-6.78l.34-7.806-5.769-4.742 8.176-17.254" fill="none" stroke="#fff" stroke-width="2.25" stroke-linecap="round" stroke-linejoin="round"/><path d="M45.381 781.628l5.942 3.49 7.012 10.741 4.277 5.062 6.961 3.446" fill="none" stroke="#bababa" stroke-width="6" stroke-linecap="round" stroke-linejoin="round"/><path d="M233.374 183.054l-14.594 9.293-5.762.344-7.125-3.05" fill="none" stroke="#fff" stroke-width="5" stroke-linecap="round" stroke-linejoin="round" stroke-opacity=".4"/><path d="M233.374 183.054l-14.594 9.293-5.762.344-7.125-3.05" fill="none" stroke="#fa7f70" stroke-width="3" stroke-dasharray="2,1"/><path d="M218.674 412.011l13.871-3.133 2.56-4.894 17.366-1.91" fill="none" stroke="#fff" stroke-width="5" stroke-linecap="round" stroke-linejoin="round" stroke-opacity=".4"/><path d="M218.674 412.011l13.871-3.133 2.56-4.894 17.366-1.91" fill="none" stroke="#fa7f70" stroke-width="3" stroke-dasharray="2,1"/><path d="M220.092 442.292l13.29-.867" fill="none" stroke="#fff" stroke-width="5" stroke-linecap="round" stroke-linejoin="round" stroke-opacity=".4"/><path d="M220.092 442.292l13.29-.867" fill="none" stroke="#fa7f70" stroke-width="3" stroke-dasharray="2,1"/><path d="M290.776 332.777l-8.106-7.27" fill="none" stroke="#fff" stroke-width="5" stroke-linecap="round" stroke-linejoin="round" stroke-opacity=".4"/><path d="M290.776 332.777l-8.106-7.27" fill="none" stroke="#fa7f70" stroke-width="3" stroke-dasharray="2,1"/><path d="M277.784 308.335l-3.235 1.918 2.532 2.391-2.602.937-1.734-2.605-5.567.316" fill="none" stroke="#fff" stroke-width="5" stroke-linecap="round" stroke-linejoin="round" stroke-opacity=".4"/><path d="M277.784 308.335l-3.235 1.918 2.532 2.391-2.602.937-1.734-2.605-5.567.316" fill="none" stroke="#fa7f70" stroke-width="3" stroke-dasharray="2,1"/><path d="M355.885 473.203l-.468-6.559-5.296-5.5" fill="none" stroke="#fff" stroke-width="5" stroke-linecap="round" stroke-linejoin="round" stroke-opacity=".4"/><path d="M355.885 473.203l-.468-6.559-5.296-5.5" fill="none" stroke="#fa7f70" stroke-width="3" stroke-dasharray="2,1"/><path d="M341.424 428.16l10.887-12.813" fill="none" stroke="#fff" stroke-width="5" stroke-linecap="round" stroke-linejoin="round" stroke-opacity=".4"/><path d="M341.424 428.16l10.887-12.813" fill="none" stroke="#fa7f70" stroke-width="3" stroke-dasharray="2,1"/><path d="M311.471 303.206l3.512.49" fill="none" stroke="#fff" stroke-width="5" stroke-linecap="round" stroke-linejoin="round" stroke-opacity=".4"/><path d="M311.471 303.206l3.512.49" fill="none" stroke="#fa7f70" stroke-width="3" stroke-dasharray="2,1"/><path d="M293.831 416.277l-2.903 1.652-14.73-12.324-3.933-6.602-.926-6.64" fill="none" stroke="#fff" stroke-width="3.3" stroke-linecap="round" stroke-linejoin="round" stroke-opacity=".4"/><path d="M293.831 416.277l-2.903 1.652-14.73-12.324-3.933-6.602-.926-6.64" fill="none" stroke="#fa7f70" stroke-width="1.3" stroke-linecap="round" stroke-linejoin="round" stroke-dasharray="1,4,2,3"/><path d="M259.98 518.292l8.776 12.81 1.02 7.823-3.4 8.844 4.08 16.332 20.675 13.77" fill="none" stroke="#fff" stroke-width="3.3" stroke-linecap="round" stroke-linejoin="round" stroke-opacity=".4"/><path d="M259.98 518.292l8.776 12.81 1.02 7.823-3.4 8.844 4.08 16.332 20.675 13.77" fill="none" stroke="#fa7f70" stroke-width="1.3" stroke-linecap="round" stroke-linejoin="round" stroke-dasharray="1,4,2,3"/><path d="M233.381 441.425l-.836-32.547" fill="none" stroke="#fff" stroke-width="3.3" stroke-linecap="round" stroke-linejoin="round" stroke-opacity=".4"/><path d="M233.381 441.425l-.836-32.547" fill="none" stroke="#fa7f70" stroke-width="1.3" stroke-linecap="round" stroke-linejoin="round" stroke-dasharray="3,3.5"/><path d="M137.241 322.363l30.828-10.387 15.57 7.555 21.574 11.191" fill="none" stroke="#fff" stroke-width="3.3" stroke-linecap="round" stroke-linejoin="round" stroke-opacity=".4"/><path d="M137.241 322.363l30.828-10.387 15.57 7.555 21.574 11.191" fill="none" stroke="#fa7f70" stroke-width="1.3" stroke-linecap="round" stroke-linejoin="round" stroke-dasharray="1,4,2,3"/><path d="M310.018 352.29l-10.683-10.908-2.477-2.53-7.156 6.913-2.86-1.6-6.976 7.12 4.82 4.27 6.598-6.149-1.582-3.64" fill="none" stroke="#fff" stroke-width="3.3" stroke-linecap="round" stroke-linejoin="round" stroke-opacity=".4"/><path d="M310.018 352.29l-10.683-10.908-2.477-2.53-7.156 6.913-2.86-1.6-6.976 7.12 4.82 4.27 6.598-6.149-1.582-3.64" fill="none" stroke="#fa7f70" stroke-width="1.3" stroke-linecap="round" stroke-linejoin="round" stroke-dasharray="3,3.5"/><path d="M299.335 341.382l6.226-5.867-27.777-27.18" fill="none" stroke="#fff" stroke-width="3.3" stroke-linecap="round" stroke-linejoin="round" stroke-opacity=".4"/><path d="M299.335 341.382l6.226-5.867-27.777-27.18" fill="none" stroke="#fa7f70" stroke-width="1.3" stroke-linecap="round" stroke-linejoin="round" stroke-dasharray="3,3.5"/><path d="M296.858 338.851l-6.082-6.074" fill="none" stroke="#fff" stroke-width="3.3" stroke-linecap="round" stroke-linejoin="round" stroke-opacity=".4"/><path d="M296.858 338.851l-6.082-6.074" fill="none" stroke="#fa7f70" stroke-width="1.3" stroke-linecap="round" stroke-linejoin="round" stroke-dasharray="1,4,2,3"/><path d="M282.67 325.507l-10.25-9.539-13.113 11.207-5.37-2.62-.649-.306 13.632-12.894.258-.06 5.242 4.676" fill="none" stroke="#fff" stroke-width="3.3" stroke-linecap="round" stroke-linejoin="round" stroke-opacity=".4"/><path d="M282.67 325.507l-10.25-9.539-13.113 11.207-5.37-2.62-.649-.306 13.632-12.894.258-.06 5.242 4.676" fill="none" stroke="#fa7f70" stroke-width="1.3" stroke-linecap="round" stroke-linejoin="round" stroke-dasharray="1,4,2,3"/><path d="M350.12 461.144l-5.71-5.684-2.95-8.472-.03-18.828" fill="none" stroke="#fff" stroke-width="3.3" stroke-linecap="round" stroke-linejoin="round" stroke-opacity=".4"/><path d="M350.12 461.144l-5.71-5.684-2.95-8.472-.03-18.828" fill="none" stroke="#fa7f70" stroke-width="1.3" stroke-linecap="round" stroke-linejoin="round" stroke-dasharray="3,3.5"/><path d="M290.928 417.93l-12.312 11.437" fill="none" stroke="#fff" stroke-width="3.3" stroke-linecap="round" stroke-linejoin="round" stroke-opacity=".4"/><path d="M290.928 417.93l-12.312 11.437" fill="none" stroke="#fa7f70" stroke-width="1.3" stroke-linecap="round" stroke-linejoin="round" stroke-dasharray="1,4,2,3"/><path d="M301.98 438.945l11.215 9.953 3.343-3.457" fill="none" stroke="#ff0" stroke-width="3.3" stroke-linecap="round" stroke-linejoin="round" stroke-opacity=".67"/><path d="M301.98 438.945l11.215 9.953 3.343-3.457" fill="none" stroke="#fa7f70" stroke-width="1.3" stroke-linecap="round" stroke-linejoin="round" stroke-dasharray="1,4,2,3"/><path d="M314.983 303.695l2.801.09 3.933-6.394-.582-4.809.871-4.812-3.402-3.477-8.902-2.093-5.387-4.465" fill="none" stroke="#0ff" stroke-width="3.3" stroke-linecap="round" stroke-linejoin="round" stroke-opacity=".4"/><path d="M314.983 303.695l2.801.09 3.933-6.394-.582-4.809.871-4.812-3.402-3.477-8.902-2.093-5.387-4.465" fill="none" stroke="#fa7f70" stroke-width="1.3" stroke-linecap="round" stroke-linejoin="round" stroke-dasharray="1,4,2,3"/><path d="M223.871 520.64l-5.8-11-2.732-5.465.852-8.195 1.69-34.387 2.212-19.3-1.312-14.575.324-6.69.02-2.47-.446-6.547-.226-3.285-3.055-8.48-17.488-24.59-.544-5.46-.5-6.642 2.368-9.3 5.984-23.532 12.684-15.953 8.437-38.922-1.007-12.148 2.222-37.114-1.679-14.765-9.458-11.672-5.089-4.067-5.43-6.44m146.847 282.167l3.14 1.395 2.965 1.312 5.77 1.02 11.191-2.172m-24.757 20.008l7.461-6.106 9.16-6.78 8.136-7.122" fill="none" stroke="#fff" stroke-width="2.25" stroke-linecap="round" stroke-linejoin="round"/><path d="M299.502 501.648l-20.347 10.855-19.176 5.79-13.387 4.046-13.566 1.016-9.156-2.715" fill="none" stroke="#fff" stroke-width="4.8" stroke-linecap="round" stroke-linejoin="round"/><path d="M58.335 795.86l-3.809-27.88" fill="none" stroke="#eeff41" stroke-width="4.8" stroke-linecap="round" stroke-linejoin="round"/><path d="M175.502 539.363v7s0 4 4 4c.49 0 .907-.08 1.282-.188-.06-.48-.03-.812-.03-.812v-.219a3.366 3.366 0 0 1-1.25.22c-3 0-3-3-3-3v-5.5c2 .952 4 .952 6 0v1.155c.333.133.676.258 1 .344v-3c-3 1.375-5 1.304-8 0zm2.5 3a1 1 0 1 0 0 2 1 1 0 0 0 0-2zm3.5 0v7s0 4 4 4 4-4 4-4v-7c-3 1.375-5 1.304-8 0zm2.5 3a1 1 0 1 1 0 2 1 1 0 0 1 0-2zm3 0a1 1 0 1 1 0 2 1 1 0 0 1 0-2zm-7.5.5c-1.464 0-2 1.02-2 2h3.25v-1.657c-.304-.218-.703-.343-1.25-.343zm4 3.5h4c0 1-1 2-2 2s-2-1-2-2zm0 0" fill="#734a07"/><path d="M12.55 409.683h5v5h-5zm0 0" fill="#858585"/><path d="M16.835 412.183l-.339 1.051-.896.648h-1.104l-.892-.648-.339-1.05.34-1.052.891-.648H15.6l.896.648zm0 0" fill="#fff"/><path d="M12.996 410.398l3.84 3.84.264-.27-3.835-3.84zm70.256-145.086h5v5h-5zm0 0" fill="#858585"/><path d="M87.542 267.812l-.343 1.047-.892.648h-1.104l-.892-.648-.343-1.047.343-1.05.892-.649h1.104l.892.648zm0 0" fill="#fff"/><path d="M83.702 266.027l3.84 3.836.265-.266-3.84-3.84zm0 0" fill="#858585"/><path d="M264.17 542.265l-.64 1.72c-.28.75-.606 1.272-.969 1.577-.366.301-.824.348-1.375.141-.343-.125-.6-.329-.766-.61-.155-.28-.202-.625-.139-1.03l-.05-.02a2.152 2.152 0 0 1-.469.61 1.313 1.313 0 0 1-.64.311c-.23.04-.5 0-.813-.109-.55-.21-.907-.555-1.062-1.03-.165-.482-.125-1.048.125-1.705l.781-2.109zm-2.843-.187l-.422 1.11c-.188.507-.235.89-.14 1.14.09.257.304.453.64.578.332.125.613.1.844-.08.226-.18.437-.524.625-1.032l.375-1zm-.625-.235l-2.188-.828-.453 1.22c-.195.518-.227.925-.09 1.218.125.29.356.5.688.625.312.125.601.113.875-.03.282-.148.523-.496.734-1.047zm0 0" fill="#afa" stroke="#fff" stroke-width="2" stroke-linejoin="round" stroke-miterlimit="10" stroke-opacity=".6"/><path d="M261.07 548.933c0 .09 0 .188-.02.281-.01.102-.03.196-.05.282l-.735-.11c.03-.09.05-.172.06-.265 0-.09.02-.18.02-.25 0-.25-.07-.485-.203-.704a1.406 1.406 0 0 0-.547-.53 1.809 1.809 0 0 0-.843-.188l-2.578-.03v-.796l4.828.06v.641l-.89.08v.03c.27.156.492.36.672.61.186.257.281.554.281.89zm1.917 1.047c.03.105.01.215-.05.328-.06.117-.168.191-.344.234a.464.464 0 0 1-.39-.05.48.48 0 0 1-.203-.266.488.488 0 0 1 .05-.359c.06-.102.172-.176.327-.219.176-.04.314-.03.407.03.101.06.172.164.203.297zm-1.656.812l-4.688 1.172-.187-.765 4.687-1.172zm-4 4.313c-.149-.574-.06-1.086.265-1.53.321-.45.883-.775 1.688-.97.8-.195 1.445-.172 1.937.08.5.238.828.648.985 1.234.08.364.08.676 0 .938-.07.258-.184.488-.329.687l.02.05c.06-.03.164-.07.313-.125.156-.04.273-.07.36-.09l1.875-.469.186.765-6.64 1.657-.156-.625.593-.266v-.03a1.71 1.71 0 0 1-.656-.438c-.199-.199-.344-.484-.437-.859zm.671-.03c.125.5.348.812.672.937.322.133.758.133 1.313 0l.125-.03c.594-.148 1.02-.355 1.282-.625.257-.262.32-.652.187-1.172-.105-.418-.352-.687-.735-.812-.375-.125-.84-.12-1.39.01-.562.133-.977.344-1.235.625-.25.29-.324.645-.219 1.063zm5.528 4.198c.08.312.09.601.03.875a1.67 1.67 0 0 1-.359.766l.01.05.64-.05.156.61-4.766 1.186c-.668.164-1.206.118-1.625-.14-.424-.25-.734-.735-.92-1.453-.165-.688-.205-1.274-.11-1.75l.702-.188c-.132.52-.113 1.13.06 1.828.105.407.306.692.594.86.281.164.628.195 1.046.09l.188-.05c.07-.01.172-.03.297-.06.133-.03.226-.05.281-.05v-.03c-.562-.21-.922-.637-1.077-1.28-.157-.607-.06-1.134.281-1.58.344-.437.895-.75 1.655-.937.75-.188 1.384-.164 1.907.06.52.227.852.641 1 1.235zm-.61.266a1.076 1.076 0 0 0-.703-.797c-.367-.137-.84-.133-1.422.01-.574.145-.984.36-1.234.641-.242.29-.312.64-.219 1.047.125.476.336.79.641.937.301.156.738.164 1.312.03l.172-.05c.645-.168 1.078-.399 1.298-.688.218-.28.27-.664.155-1.14zm2.09 5.164c.114.382.13.75.05 1.093-.07.344-.246.633-.515.875-.262.24-.606.422-1.032.547l-.437.141-.968-3.156c-.523.164-.884.421-1.078.765-.2.344-.23.742-.09 1.203.09.29.202.54.327.75.125.207.274.422.453.641l-.67.203a5.027 5.027 0 0 1-.439-.64 4.342 4.342 0 0 1-.327-.797 2.718 2.718 0 0 1-.08-1.25c.08-.387.27-.727.562-1.016.29-.28.693-.5 1.203-.656.51-.157.97-.203 1.375-.14.415.06.766.202 1.047.452.29.25.5.578.625.985zm-.609.187c-.117-.375-.324-.637-.625-.78-.293-.138-.649-.165-1.063-.08l.704 2.358c.382-.117.671-.305.86-.562.194-.25.237-.563.124-.938zm0 0" fill="none" stroke="#fff" stroke-width="2" stroke-linejoin="round" stroke-miterlimit="10" stroke-opacity=".6"/><use height="100%" width="100%" y="565.504" x="255.007" xlink:href="#b" transform="translate(3.462 -26.31)" fill="#212121"/><use height="100%" width="100%" y="572.155" x="252.736" xlink:href="#c" transform="translate(3.46 -26.3)" fill="#212121"/><use height="100%" width="100%" y="576.749" x="252.808" xlink:href="#d" transform="translate(3.46 -26.3)" fill="#212121"/><use height="100%" width="100%" y="579.002" x="253.37" xlink:href="#e" transform="translate(3.46 -26.3)" fill="#212121"/><use height="100%" width="100%" y="584.372" x="254.712" xlink:href="#f" transform="translate(3.46 -26.3)" fill="#212121"/><use height="100%" width="100%" y="589.909" x="256.099" xlink:href="#g" transform="translate(3.46 -26.3)" fill="#212121"/><path d="M122.534 651.085l1.515-7.14h3.625l-.172.797h-2.734l-.53 2.531h2.561l-.172.797h-2.562l-.64 3.015zm6.301.095c-.438 0-.793-.149-1.063-.454-.262-.312-.39-.77-.39-1.375 0-.5.06-.973.188-1.422.132-.445.315-.844.546-1.187.227-.344.505-.614.83-.813a2.01 2.01 0 0 1 1.06-.297c.352 0 .641.09.86.282.22.18.38.39.485.64h.06l.311-.828h.672l-1.14 5.36h-.703l.141-.985h-.05a3.78 3.78 0 0 1-.814.766 1.705 1.705 0 0 1-1 .312zm.281-.72c.238 0 .476-.09.72-.265.237-.188.452-.43.64-.735.194-.3.347-.644.452-1.03.04-.188.07-.364.09-.532.02-.164.03-.32.03-.469 0-.312-.09-.566-.265-.765-.169-.196-.4-.297-.689-.297-.262 0-.5.09-.718.25a2.047 2.047 0 0 0-.578.672 3.637 3.637 0 0 0-.39.968c-.09.356-.14.731-.14 1.125 0 .356.07.625.218.813.144.18.351.265.625.265zm5.929.72c-.593 0-1.074-.165-1.437-.5-.367-.333-.547-.833-.547-1.5 0-.477.06-.93.188-1.36.132-.426.32-.8.562-1.125.238-.332.531-.594.875-.78a2.446 2.446 0 0 1 1.172-.283c.227 0 .458.03.687.08.227.04.442.102.641.172l-.25.735a3.914 3.914 0 0 0-.484-.172 2.14 2.14 0 0 0-.578-.08c-.387 0-.727.132-1.016.39-.28.25-.508.59-.672 1.016-.156.43-.234.898-.234 1.406 0 .406.101.727.312.953.207.22.5.328.875.328.227 0 .445-.03.656-.09.22-.06.426-.14.625-.235v.735c-.187.09-.398.168-.625.218-.229.06-.479.09-.75.09zm3.955 0c-.408 0-.736-.11-.986-.329-.242-.227-.359-.562-.359-1 0-.145 0-.285.03-.422.03-.133.06-.28.08-.437l.703-3.266h.891l-.719 3.375a3.43 3.43 0 0 0-.09.672c0 .211.05.375.157.5.113.125.297.187.547.187.226 0 .472-.08.734-.234.258-.164.504-.426.734-.78.227-.353.407-.822.532-1.407l.484-2.313h.875l-1.14 5.36h-.719l.11-.985h-.05a3.751 3.751 0 0 1-.454.5 2.233 2.233 0 0 1-.593.422 1.89 1.89 0 0 1-.767.156zm4.163-.095l1.625-7.593h.875l-1.61 7.593zm4.16.095c-.356 0-.656-.09-.906-.25-.25-.177-.375-.477-.375-.907 0-.219.03-.457.09-.719l.61-2.906h-.829l.08-.406.905-.375.625-1.11h.515l-.265 1.22h1.345l-.142.671h-1.344l-.609 2.922c-.02.09-.04.183-.06.297-.02.105-.03.203-.03.297 0 .156.04.29.125.39.08.106.22.156.407.156.113 0 .227 0 .343-.03.113-.02.234-.05.36-.09v.672c-.09.04-.21.08-.376.11-.166.04-.324.06-.468.06zm1.222 2.312c-.156 0-.285-.01-.39-.03a2.689 2.689 0 0 1-.297-.08v-.703c.09.02.195.04.297.06.105.02.22.03.344.03.261 0 .488-.09.687-.25.195-.168.38-.414.547-.734l.36-.625-.813-5.438h.875l.344 2.656c.04.22.07.453.08.703.02.25.03.493.05.72 0 .23.02.417.02.562h.03l.188-.469c.09-.219.191-.44.297-.672.113-.227.211-.414.298-.562l1.545-2.938h.955l-3.407 6.266c-.273.5-.559.875-.86 1.125-.293.25-.672.375-1.14.375zm-34.515 9.535l1.515-7.14h1.563c1.47 0 2.203.605 2.203 1.812 0 .511-.137.961-.406 1.343-.274.375-.73.653-1.375.83l1.187 3.155h-.984l-1.016-2.953h-1.172l-.625 2.953zm1.672-3.703h.781c.665 0 1.148-.145 1.453-.438.301-.289.454-.664.454-1.125 0-.406-.118-.687-.345-.844-.229-.164-.569-.25-1.014-.25h-.75zm6.074 3.797c-.625 0-1.106-.176-1.438-.532-.336-.363-.5-.859-.5-1.484 0-.426.06-.848.172-1.266.125-.414.301-.797.532-1.14.238-.344.523-.614.86-.813a2.058 2.058 0 0 1 1.108-.312c.508 0 .891.11 1.141.328.258.22.391.527.391.922 0 .343-.11.664-.329.953-.21.281-.546.512-1.015.687-.46.168-1.055.25-1.78.25h-.173c-.01.06-.02.117-.02.188v.172c0 .406.09.73.281.968.196.243.504.36.922.36.25 0 .488-.03.72-.11.225-.07.475-.175.75-.312v.75a6.006 6.006 0 0 1-.75.281 3.15 3.15 0 0 1-.876.11zm-.906-3.125h.08c.394 0 .758-.03 1.093-.09.344-.07.618-.192.83-.36a.795.795 0 0 0 .311-.656.556.556 0 0 0-.172-.422c-.117-.113-.297-.172-.547-.172-.324 0-.636.153-.937.454-.293.293-.512.711-.656 1.25zm5.02 3.125a3.7 3.7 0 0 1-.86-.09 3.05 3.05 0 0 1-.64-.235v-.812c.163.105.38.203.64.297.27.09.547.125.828.125.394 0 .695-.07.907-.219a.732.732 0 0 0 .312-.609c0-.196-.07-.36-.202-.485-.125-.132-.36-.3-.705-.5-.375-.207-.664-.425-.859-.656-.186-.226-.28-.508-.28-.844 0-.457.16-.82.484-1.093.331-.282.773-.422 1.327-.422.321 0 .618.04.891.11a4.3 4.3 0 0 1 .734.25l-.28.702a4.537 4.537 0 0 0-.595-.219 2.383 2.383 0 0 0-.75-.109c-.293 0-.522.07-.687.203a.65.65 0 0 0-.25.531c0 .168.05.321.172.454.114.125.347.29.703.484.226.137.43.273.61.406.176.125.316.278.421.453.102.18.157.391.157.641 0 .543-.187.953-.562 1.234-.375.274-.883.407-1.516.407zm4.898-6.344a.486.486 0 0 1-.343-.125c-.09-.08-.125-.196-.125-.344a.76.76 0 0 1 .14-.453.534.534 0 0 1 .437-.188c.313 0 .47.153.47.454 0 .21-.06.371-.189.484a.535.535 0 0 1-.39.172zm-1.843 6.25l1.14-5.36h.875l-1.14 5.36zm4.233.094c-.437 0-.793-.149-1.062-.454-.262-.3-.39-.757-.39-1.375 0-.476.06-.94.171-1.39.125-.446.301-.844.531-1.188.228-.35.504-.629.828-.828a1.984 1.984 0 0 1 1.094-.312c.363 0 .65.09.86.281.218.18.38.391.485.641h.06c.03-.227.06-.442.09-.64.03-.208.07-.43.125-.673l.36-1.75h.874l-1.609 7.594h-.719l.11-.985h-.05a4.756 4.756 0 0 1-.797.766 1.573 1.573 0 0 1-.97.313zm.297-.719c.22 0 .438-.08.656-.25.227-.164.44-.383.625-.656a3.59 3.59 0 0 0 .47-.969c.124-.363.187-.742.187-1.14 0-.32-.08-.583-.235-.782-.156-.195-.414-.297-.765-.297-.273 0-.516.09-.735.266a2.339 2.339 0 0 0-.562.687 4.127 4.127 0 0 0-.375.97c-.09.354-.125.718-.125 1.093 0 .718.285 1.078.86 1.078zm5.981.719c-.625 0-1.106-.176-1.438-.532-.336-.363-.5-.859-.5-1.484 0-.426.06-.848.173-1.266.125-.414.3-.797.53-1.14.24-.344.525-.614.86-.813a2.06 2.06 0 0 1 1.11-.312c.508 0 .89.11 1.14.328.258.22.39.527.39.922 0 .343-.109.664-.327.953-.212.281-.548.512-1.017.687-.46.168-1.053.25-1.78.25h-.173c-.01.06-.02.117-.02.188v.172c0 .406.09.73.28.968.195.243.505.36.923.36.25 0 .487-.03.718-.11.227-.07.477-.175.75-.312v.75a6.006 6.006 0 0 1-.75.281c-.243.07-.532.11-.875.11zm-.907-3.125h.08c.395 0 .76-.03 1.094-.09.344-.07.617-.192.828-.36a.796.796 0 0 0 .313-.656.556.556 0 0 0-.172-.422c-.117-.113-.297-.172-.547-.172-.324 0-.637.153-.937.454-.293.293-.512.711-.657 1.25zm3.707 3.062l1.157-5.422h.782l-.11.985c.125-.157.27-.317.437-.485.176-.176.375-.316.594-.422a1.73 1.73 0 0 1 .781-.172c.426 0 .766.122 1.016.36.25.23.375.558.375.984 0 .156-.02.313-.05.47-.02.155-.04.296-.06.421l-.718 3.281h-.937l.718-3.406c.03-.145.05-.27.06-.375.02-.102.03-.203.03-.297 0-.426-.225-.64-.67-.64-.23 0-.478.08-.735.234-.25.156-.493.406-.72.75-.218.343-.386.812-.5 1.406l-.5 2.328zm7.399.063c-.356 0-.656-.09-.906-.25-.25-.176-.375-.477-.375-.907 0-.218.03-.457.09-.718l.61-2.907h-.828l.08-.406.906-.375.625-1.109h.515l-.265 1.218h1.344l-.14.672h-1.344l-.61 2.922a6.7 6.7 0 0 0-.06.297 1.59 1.59 0 0 0-.03.297c0 .156.04.29.125.391.08.105.218.156.406.156.113 0 .227 0 .344-.03.112-.02.235-.05.36-.09v.672c-.09.04-.212.08-.375.11-.168.04-.326.06-.469.06zm3.601-6.344a.489.489 0 0 1-.343-.125c-.09-.08-.125-.196-.125-.344a.76.76 0 0 1 .14-.453.536.536 0 0 1 .438-.188c.312 0 .47.153.47.454 0 .21-.06.371-.189.484a.535.535 0 0 1-.39.172zm-1.843 6.25l1.14-5.36h.875l-1.14 5.36zm4.238.094c-.438 0-.793-.149-1.063-.454-.26-.312-.39-.769-.39-1.375 0-.5.06-.972.187-1.42a4.38 4.38 0 0 1 .547-1.189c.227-.344.504-.613.828-.812a2.005 2.005 0 0 1 1.063-.297c.351 0 .64.09.86.281.218.18.378.391.484.641h.06l.313-.829h.672l-1.14 5.36h-.703l.14-.985h-.05c-.23.293-.5.547-.814.766a1.714 1.714 0 0 1-1 .313zm.281-.719c.238 0 .477-.09.72-.266.237-.187.452-.43.64-.734.195-.3.347-.645.453-1.03a6 6 0 0 0 .09-.533c.02-.164.03-.32.03-.468 0-.313-.09-.567-.266-.766a.866.866 0 0 0-.688-.297c-.26 0-.5.09-.718.25a2.057 2.057 0 0 0-.578.672 3.665 3.665 0 0 0-.39.97c-.09.354-.142.73-.142 1.124 0 .355.07.625.22.812.144.18.352.266.624.266zm3.728.625l1.624-7.594h.875l-1.61 7.594zm-32.462 11.937l3.875-7.14h.937l.875 7.14h-.875l-.264-2.218h-2.423l-1.156 2.218zm2.562-3.015h1.891l-.156-1.5c-.03-.258-.06-.539-.08-.844-.02-.3-.04-.57-.05-.813h-.03c-.105.25-.23.524-.375.813-.136.293-.28.586-.437.875zm3.903 3.015l1.14-5.359h.72l-.11.984h.05c.145-.175.29-.347.438-.515.156-.164.328-.3.516-.407.195-.1.421-.156.671-.156.09 0 .192 0 .297.02a.75.75 0 0 1 .297.05l-.203.797c-.18-.04-.344-.06-.5-.06-.336 0-.633.11-.89.328-.262.22-.48.5-.657.844-.168.336-.289.68-.359 1.031l-.53 2.453zm5.922.094c-.625 0-1.106-.176-1.438-.53-.336-.364-.5-.86-.5-1.486 0-.425.06-.847.173-1.265.125-.414.301-.797.531-1.14.238-.345.524-.614.86-.813a2.06 2.06 0 0 1 1.11-.313c.507 0 .89.11 1.14.328.257.22.39.528.39.922 0 .344-.11.664-.328.953-.212.282-.547.512-1.017.688-.46.168-1.053.25-1.78.25h-.173c-.01.05-.01.117-.01.187v.172c0 .406.09.731.281.97.195.241.504.358.923.358.25 0 .488-.03.72-.109.225-.07.475-.176.75-.313v.75a6.14 6.14 0 0 1-.75.282 3.17 3.17 0 0 1-.876.11zm-.907-3.125h.08c.395 0 .758-.03 1.094-.09.344-.07.617-.19.828-.359a.797.797 0 0 0 .313-.656.554.554 0 0 0-.172-.422c-.117-.113-.297-.172-.547-.172-.324 0-.637.152-.938.453-.293.293-.51.711-.656 1.25zm5.41 3.125c-.437 0-.793-.148-1.062-.453-.262-.313-.39-.77-.39-1.375 0-.5.06-.973.187-1.422.133-.445.317-.844.548-1.187.225-.344.504-.614.827-.813a2.01 2.01 0 0 1 1.062-.297c.352 0 .641.09.861.281.218.18.38.391.483.641h.06l.313-.828h.671l-1.14 5.36h-.703l.14-.985h-.05c-.23.293-.5.547-.813.766-.305.21-.636.312-1 .312zm.282-.719c.238 0 .476-.09.718-.265.24-.188.454-.43.641-.735.195-.3.348-.644.453-1.03.04-.188.07-.364.09-.532.02-.164.03-.32.03-.469 0-.312-.09-.566-.266-.766-.167-.195-.398-.296-.687-.296-.262 0-.5.08-.719.25a2.04 2.04 0 0 0-.577.671 3.66 3.66 0 0 0-.392.97c-.09.355-.14.73-.14 1.124 0 .356.07.625.22.813.143.18.35.265.624.265zm0 0" fill="none" stroke="#fff" stroke-width="2" stroke-linejoin="round" stroke-miterlimit="10" stroke-opacity=".6"/><use height="100%" width="100%" y="677.387" x="118.668" xlink:href="#a" transform="translate(3.46 -26.3)" fill="#615c5c"/><use height="100%" width="100%" y="677.387" x="123.438" xlink:href="#h" transform="translate(3.46 -26.3)" fill="#615c5c"/><use height="100%" width="100%" y="677.387" x="129.118" xlink:href="#i" transform="translate(3.46 -26.3)" fill="#615c5c"/><use height="100%" width="100%" y="677.387" x="133.648" xlink:href="#j" transform="translate(3.46 -26.3)" fill="#615c5c"/><use height="100%" width="100%" y="677.387" x="139.438" xlink:href="#k" transform="translate(3.46 -26.3)" fill="#615c5c"/><use height="100%" width="100%" y="677.387" x="142.018" xlink:href="#l" transform="translate(3.46 -26.3)" fill="#615c5c"/><use height="100%" width="100%" y="677.387" x="145.338" xlink:href="#m" transform="translate(3.46 -26.3)" fill="#615c5c"/><use height="100%" width="100%" y="689.327" x="110.163" xlink:href="#n" transform="translate(3.46 -26.3)" fill="#615c5c"/><use height="100%" width="100%" y="689.327" x="115.893" xlink:href="#o" transform="translate(3.46 -26.3)" fill="#615c5c"/><use height="100%" width="100%" y="689.327" x="120.883" xlink:href="#p" transform="translate(3.46 -26.3)" fill="#615c5c"/><use height="100%" width="100%" y="689.327" x="125.203" xlink:href="#q" transform="translate(3.46 -26.3)" fill="#615c5c"/><use height="100%" width="100%" y="689.327" x="127.783" xlink:href="#r" transform="translate(3.46 -26.3)" fill="#615c5c"/><use height="100%" width="100%" y="689.327" x="133.573" xlink:href="#o" transform="translate(3.46 -26.3)" fill="#615c5c"/><use height="100%" width="100%" y="689.327" x="138.563" xlink:href="#s" transform="translate(3.46 -26.3)" fill="#615c5c"/><use height="100%" width="100%" y="689.327" x="144.353" xlink:href="#l" transform="translate(3.46 -26.3)" fill="#615c5c"/><use height="100%" width="100%" y="689.327" x="147.673" xlink:href="#q" transform="translate(3.46 -26.3)" fill="#615c5c"/><use height="100%" width="100%" y="689.327" x="150.253" xlink:href="#h" transform="translate(3.46 -26.3)" fill="#615c5c"/><use height="100%" width="100%" y="689.327" x="155.933" xlink:href="#k" transform="translate(3.46 -26.3)" fill="#615c5c"/><use height="100%" width="100%" y="701.267" x="124.303" xlink:href="#t" transform="translate(3.46 -26.3)" fill="#615c5c"/><use height="100%" width="100%" y="701.267" x="129.923" xlink:href="#u" transform="translate(3.46 -26.3)" fill="#615c5c"/><use height="100%" width="100%" y="701.267" x="133.703" xlink:href="#o" transform="translate(3.46 -26.3)" fill="#615c5c"/><use height="100%" width="100%" y="701.267" x="138.693" xlink:href="#h" transform="translate(3.46 -26.3)" fill="#615c5c"/><path d="M293.831 416.277l6.093-11.395 20.817-22.992-15.719-16.226 4.996-13.375 3.051-5.426 2.035-3.602 2.375-4.199 3.051-12.21-.68-7.458-3.387-7.805-4.992-8.383-3.254-8.234-3.902-17.234-16.469-32.407" fill="none" stroke="#00e5ff" stroke-width="4.8" stroke-linecap="round" stroke-linejoin="round"/><path d="M233.256 494.43l-7.82 4.222 5.755 10.693-.92.497 1.754 3.26-.02.638.37.01.841 1.563 2.705-1.459 3.615.106.02-.69 10.826.313.255-8.882-11.239-.336-.394-.732-.494.266.02-.607-.503-.01z" fill="#d9cfc7" fill-rule="evenodd" stroke="#b8a89c" stroke-width=".919"/><path d="M352.745 471.808l-6.442-4.41-8.476-1.699-6.45.68-6.44 5.765-9.5 14.922-15.935 14.582" fill="none" stroke="#00e5ff" stroke-width="4.8" stroke-linecap="round" stroke-linejoin="round"/><path d="M214.69 538.093q-1.488.993-3 .993-1.624 0-2.52-1.2-.897-1.209-.897-3.352 0-2.253.858-3.364.857-1.11 2.578-1.11 2.247 0 2.994 2.15l-1.11.363q-.52-1.5-1.871-1.5-1.098 0-1.624.818-.52.818-.52 2.643 0 3.546 2.215 3.546.442 0 .916-.136.474-.137.773-.345v-2.182h-1.903v-1.039h3.11zm3.195-6.163v4.455q0 1.013.318 1.41.318.389 1.136.389.838 0 1.325-.572.487-.571.487-1.61v-4.072h1.175v5.526q0 1.228.04 1.5h-1.104q-.007-.032-.013-.175-.007-.143-.02-.324-.007-.189-.02-.702h-.019q-.403.728-.935 1.033-.526.298-1.312.298-1.156 0-1.695-.571-.532-.578-.532-1.903v-4.682zm7.695 3.76q0 1.182.52 1.85.525.67 1.435.67.669 0 1.169-.286.506-.292.675-.792l1.026.292q-.286.805-1.052 1.234-.76.428-1.818.428-1.533 0-2.358-.954-.824-.955-.824-2.734 0-1.734.805-2.663.812-.935 2.338-.935t2.312.929q.785.928.785 2.805v.156zm1.929-3.026q-.87 0-1.377.571-.507.565-.54 1.559h3.793q-.181-2.13-1.876-2.13zm10.838 4.286q0 1-.76 1.571-.753.565-2.09.565-1.338 0-2.04-.415-.695-.422-.909-1.325l1.033-.201q.123.558.526.818.409.253 1.39.253 1.753 0 1.753-1.11 0-.416-.319-.67-.318-.259-.974-.421-1.714-.422-2.175-.663-.461-.24-.708-.597-.247-.364-.247-.903 0-.954.689-1.493.688-.54 1.993-.54 1.143 0 1.825.436.682.428.85 1.253l-1.051.13q-.072-.468-.461-.708-.39-.24-1.163-.24-1.59 0-1.59.98 0 .39.265.624.273.234.87.377l.773.2q1.059.26 1.52.514.468.253.734.636.266.377.266.929zm2.325-4.098v-.922h1.104l.377-1.831h.779v1.831h2.805v.922h-2.805v4.234q0 .513.273.76.279.247.909.247.87 0 1.929-.22v.889q-1.098.298-2.176.298-1.052 0-1.578-.441-.526-.448-.526-1.41v-4.357zm-27.45 16.079v-4.045h-3.39v4.045h-1.24v-8.76h1.24v3.676h3.39v-3.676h1.24v8.76zm9.416-3.519q0 1.772-.818 2.714-.812.935-2.35.935-1.507 0-2.313-.948-.798-.948-.798-2.701 0-1.812.818-2.721.824-.916 2.331-.916 1.585 0 2.357.903.773.902.773 2.734zm-1.227 0q0-1.397-.448-2.085-.442-.688-1.435-.688-1.007 0-1.475.701-.467.701-.467 2.072 0 1.363.467 2.078.468.708 1.403.708 1.033 0 1.494-.695.46-.695.46-2.091zm4.449-3.507v4.455q0 1.013.317 1.409.319.39 1.137.39.838 0 1.325-.572.487-.571.487-1.61v-4.072h1.175v5.526q0 1.228.04 1.5h-1.105q-.006-.032-.013-.175-.006-.143-.02-.325l-.019-.701h-.02q-.402.727-.935 1.032-.526.3-1.311.3-1.156 0-1.695-.572-.533-.578-.533-1.903v-4.682zm12.487 5.02q0 1-.76 1.571-.753.565-2.09.565-1.338 0-2.04-.415-.695-.423-.909-1.325l1.033-.201q.123.558.526.818.409.253 1.39.253 1.753 0 1.753-1.11 0-.416-.319-.67-.318-.26-.974-.421-1.714-.423-2.175-.663-.461-.24-.708-.597-.247-.364-.247-.903 0-.955.689-1.494.688-.539 1.993-.539 1.143 0 1.825.436.682.428.85 1.253l-1.051.13q-.072-.468-.461-.708-.39-.24-1.163-.24-1.59 0-1.59.98 0 .39.265.624.273.233.87.376l.773.202q1.059.26 1.52.513.468.253.734.636.266.377.266.929zm3.183-1.26q0 1.182.519 1.85.526.67 1.435.67.669 0 1.169-.286.506-.292.675-.792l1.026.292q-.286.805-1.052 1.234-.76.428-1.818.428-1.533 0-2.357-.954-.825-.955-.825-2.734 0-1.734.805-2.663.812-.935 2.338-.935t2.312.929q.786.928.786 2.805v.156zm1.928-3.026q-.87 0-1.377.571-.506.565-.539 1.559h3.793q-.182-2.13-1.877-2.13z" style="line-height:.75;-inkscape-font-specification:'Liberation Mono';font-variant-ligatures:normal;font-variant-position:normal;font-variant-caps:normal;font-variant-numeric:normal;font-variant-alternates:normal;font-feature-settings:normal;text-indent:0;text-align:start;text-decoration-line:none;text-decoration-style:solid;text-decoration-color:#000;text-transform:none;text-orientation:mixed;white-space:normal;shape-padding:0" aria-label="Guest House" font-weight="400" font-size="13.3" font-family="Liberation Mono" letter-spacing="0" word-spacing="0" fill="#212121" stroke="#dfd" stroke-width="2.273" paint-order="stroke markers fill"/><path d="M234.897 485.42l-.968-2.685-3.958-.003-.964 2.685-1.378-.001 3.59-9.48h1.526l3.516 9.485zm-2.933-8.472l-.084.274-.486 1.49-1.064 2.973 3.255.002-1.214-3.516zm6.867.869l-.002 4.822q-.001 1.097.343 1.526.344.422 1.23.422.907 0 1.434-.618.528-.618.529-1.743l.002-4.407h1.273l-.004 5.983q0 1.328.041 1.624l-1.195-.001q-.007-.035-.014-.19t-.02-.351q-.007-.204-.021-.76h-.021q-.437.787-1.013 1.117-.57.324-1.42.323-1.252 0-1.835-.62-.576-.626-.575-2.06l.003-5.068zm12.123 6.39q-.345.738-.915 1.075-.57.33-1.42.33-1.42-.002-2.087-.979-.667-.978-.666-2.946.002-3.978 2.758-3.977.85 0 1.42.303.576.303.92.992h.014l-.014-1.061.002-2.946h1.265l-.005 8.865q0 1.188.041 1.568l-1.209-.001q-.028-.105-.049-.513-.02-.408-.02-.71zm-3.78-2.561q-.002 1.56.413 2.278.42.71 1.363.71 1.026.001 1.519-.737.492-.745.493-2.361.001-1.512-.477-2.2-.47-.69-1.517-.69-.95-.001-1.372.723-.422.723-.423 2.277zm11.589 2.79l2.671.002v.998l-6.903-.004v-.998l2.967.002.003-5.61-2.242-.001v-.998l3.508.002zm-1.4-8.084v-1.35h1.406l-.001 1.35zm6.134 2.478l.001-.998h1.195l.409-1.982h.843v1.983l3.036.002v.998l-3.037-.002-.003 4.583q0 .556.295.823.302.267.984.268.942 0 2.088-.238l-.001.963q-1.188.323-2.355.322-1.139 0-1.708-.48-.57-.484-.568-1.525l.002-4.717zm15.007 2.806q-.001 1.92-.888 2.938-.88 1.012-2.545 1.01-1.63 0-2.502-1.027-.864-1.027-.863-2.925.001-1.96.888-2.944.893-.991 2.524-.99 1.715 0 2.55.978.837.978.836 2.96zm-1.329 0q.001-1.512-.484-2.257-.477-.746-1.553-.746-1.09 0-1.596.758-.506.759-.507 2.242-.001 1.476.505 2.25.505.766 1.517.767 1.118 0 1.618-.751.5-.752.5-2.263zm9.597-2.638q-.787-.134-1.49-.134-1.132 0-1.828.85-.697.85-.698 2.164l-.002 3.57h-1.265l.003-4.928q0-.534-.098-1.258-.09-.724-.266-1.42h1.202q.28.971.336 1.758h.035q.352-.787.69-1.152.338-.372.802-.555.464-.19 1.132-.189.73 0 1.448.12zm6.52 5.459l2.671.002v.998l-6.903-.004v-.998l2.967.001.003-5.61h-2.242v-.999l3.508.002zm-1.401-8.085v-1.35l1.407.001-.001 1.35zm7.366 1.481l-.003 4.822q0 1.097.344 1.526.344.422 1.23.422.906 0 1.434-.618.528-.618.528-1.743l.003-4.407h1.272l-.003 5.983q-.001 1.328.04 1.624l-1.194-.001q-.007-.035-.014-.19t-.021-.351q-.007-.204-.02-.76h-.022q-.436.787-1.013 1.118-.57.323-1.42.322-1.251 0-1.834-.62-.576-.626-.575-2.06l.003-5.068zm9.795 7.612l.002-4.823q.001-1.082-.174-1.511-.169-.436-.626-.436-.45 0-.731.674-.275.675-.275 1.828l-.003 4.267-1.188-.001.004-5.982q0-1.329-.042-1.624h1.048l.041.893v.338h.014q.24-.717.605-1.04.366-.33.915-.33.618 0 .92.338.31.337.442 1.04h.015q.281-.744.668-1.06.394-.317.991-.316.83 0 1.188.605t.357 2.074l-.003 5.068h-1.18l.002-4.823q0-1.082-.175-1.511-.168-.436-.625-.436-.464 0-.739.59-.267.59-.268 1.77l-.002 4.408z" style="line-height:1.25;-inkscape-font-specification:'Liberation Mono';font-variant-ligatures:normal;font-variant-position:normal;font-variant-caps:normal;font-variant-numeric:normal;font-variant-alternates:normal;font-feature-settings:normal;text-indent:0;text-align:start;text-decoration-line:none;text-decoration-style:solid;text-decoration-color:#000;text-transform:none;text-orientation:mixed;white-space:normal;shape-padding:0" aria-label="Auditorium" font-weight="400" font-size="14.396" font-family="Liberation Mono" letter-spacing="0" word-spacing="0" fill="#212121" stroke="#dfd" stroke-width="2.46" paint-order="stroke markers fill"/><path d="M184.561 676.79l-1.065-2.946h-4.343l-1.056 2.947h-1.512l3.934-10.407h1.674l3.865 10.407zm-3.225-9.295l-.092.3-.532 1.636-1.165 3.263h3.571l-1.334-3.857zm13.214 8.27q-1.766 1.18-3.563 1.18-1.929 0-2.993-1.427-1.065-1.435-1.065-3.98 0-2.678 1.018-3.997 1.019-1.319 3.063-1.319 2.669 0 3.556 2.554l-1.319.432q-.617-1.782-2.222-1.782-1.303 0-1.928.972-.617.972-.617 3.14 0 4.211 2.63 4.211.525 0 1.088-.162.563-.162.918-.409v-2.592h-2.26v-1.234h3.695zm7.73 1.025v-4.805h-4.027v4.806h-1.473v-10.407h1.474v4.366h4.026v-4.366h1.474v10.407z" style="line-height:1.25;-inkscape-font-specification:'Liberation Mono';font-variant-ligatures:normal;font-variant-position:normal;font-variant-caps:normal;font-variant-numeric:normal;font-variant-alternates:normal;font-feature-settings:normal;text-indent:0;text-align:start;text-decoration-line:none;text-decoration-style:solid;text-decoration-color:#000;text-transform:none;text-orientation:mixed;white-space:normal;shape-padding:0" aria-label="AGH" font-weight="400" font-size="15.798" font-family="Liberation Mono" letter-spacing="0" word-spacing="0" fill="#212121" stroke="#dfd" stroke-width="2.7" paint-order="stroke markers fill"/><g style="line-height:1.25;-inkscape-font-specification:'Liberation Mono';font-variant-ligatures:normal;font-variant-caps:normal;font-variant-numeric:normal;text-align:start"><path d="M254.304 237.656l-3.757-4.922-1.257 1.304v3.618h-1.473v-10.407h1.473v5.192l4.413-5.192h1.735l-3.888 4.413 4.482 5.994zm10.623-2.932q0 1.389-1.057 2.16-1.057.772-2.94.772h-3.64v-10.407h3.178q3.826 0 3.826 2.523 0 .941-.555 1.574-.556.632-1.512.825 1.288.139 1.99.825.71.687.71 1.728zm-2.114-4.767q0-.825-.586-1.172-.579-.355-1.744-.355h-1.72v3.209h1.736q2.314 0 2.314-1.682zm.625 4.636q0-.88-.687-1.342-.686-.463-2.044-.463h-1.944v3.688h2.052q1.35 0 1.982-.463.64-.47.64-1.42zm8.825 3.063v-4.806h-4.027v4.806h-1.473v-10.407h1.473v4.367h4.027v-4.367h1.473v10.407z" style="-inkscape-font-specification:'Liberation Mono'" aria-label="KBH" font-weight="400" font-size="15.798" font-family="Liberation Mono" letter-spacing="0" word-spacing="0" fill="#212121" stroke="#dfd" stroke-width="2.7" paint-order="stroke markers fill"/></g><path d="M358.503 432.45a7.47 7.617 0 0 1-7.471 7.617 7.47 7.617 0 0 1-7.47-7.617 7.47 7.617 0 0 1 7.47-7.617 7.47 7.617 0 0 1 7.47 7.617z" fill="#f9f9f9" paint-order="stroke markers fill"/><g style="line-height:1.25;-inkscape-font-specification:'Ubuntu Bold';font-variant-ligatures:normal;font-variant-caps:normal;font-variant-numeric:normal;text-align:center"><path d="M354.268 430.399q0 .474-.187.91-.187.437-.486.848-.3.4-.674.773-.374.374-.736.711-.187.175-.411.4-.212.211-.412.436-.2.224-.361.424-.15.187-.187.311h3.716v1.56h-5.762q-.025-.138-.025-.35v-.3q0-.598.188-1.097.2-.498.51-.922.313-.437.7-.811.398-.374.785-.748l.561-.537q.262-.261.462-.498.2-.25.311-.487.113-.25.113-.499 0-.548-.312-.773-.312-.224-.773-.224-.337 0-.636.112-.287.1-.537.25-.237.137-.411.286-.175.137-.262.225l-.923-1.297q.549-.512 1.272-.836.736-.337 1.571-.337.761 0 1.31.175t.898.499q.361.312.524.773.174.449.174 1.023z" style="-inkscape-font-specification:'Ubuntu Bold';text-align:center" aria-label="2" font-weight="700" font-size="12.471" font-family="Ubuntu" letter-spacing="0" word-spacing="0" text-anchor="middle" fill="red"/></g><path d="M58.503 800.418a7.47 7.617 0 0 1-7.471 7.617 7.47 7.617 0 0 1-7.47-7.617 7.47 7.617 0 0 1 7.47-7.617 7.47 7.617 0 0 1 7.47 7.617z" fill="#f9f9f9" paint-order="stroke markers fill"/><g style="line-height:1.25;-inkscape-font-specification:'Ubuntu Bold';font-variant-ligatures:normal;font-variant-caps:normal;font-variant-numeric:normal;text-align:center"><path d="M48.955 797.893q.362-.15.749-.337.399-.2.773-.424.374-.237.71-.486.35-.262.624-.549h1.297v8.642H51.25v-6.223q-.374.25-.835.462-.462.2-.898.349z" style="-inkscape-font-specification:'Ubuntu Bold';text-align:center" aria-label="1" font-weight="700" font-size="12.471" font-family="Ubuntu" letter-spacing="0" word-spacing="0" text-anchor="middle" fill="red"/></g><path d="M283.503 420.731a7.47 7.617 0 0 1-7.471 7.617 7.47 7.617 0 0 1-7.47-7.617 7.47 7.617 0 0 1 7.47-7.617 7.47 7.617 0 0 1 7.47 7.617z" fill="#f9f9f9" paint-order="stroke markers fill"/><g style="line-height:1.25;-inkscape-font-specification:'Ubuntu Bold';font-variant-ligatures:normal;font-variant-caps:normal;font-variant-numeric:normal;text-align:center"><path d="M275.926 425.24q-.337 0-.711-.05-.374-.038-.723-.113-.35-.075-.636-.162-.287-.087-.45-.162l.362-1.546q.325.137.823.299.512.15 1.26.15.86 0 1.26-.325.399-.324.399-.873 0-.336-.15-.56-.137-.238-.387-.375-.249-.15-.598-.2-.337-.062-.723-.062h-.724v-1.496h.823q.275 0 .524-.05.262-.05.461-.162.2-.125.312-.325.125-.212.125-.523 0-.237-.1-.412-.1-.174-.262-.287-.15-.112-.361-.162-.2-.062-.412-.062-.536 0-.998.162-.449.162-.823.399l-.66-1.36q.199-.124.46-.261.275-.137.6-.25.324-.112.685-.187.374-.075.786-.075.76 0 1.31.188.56.174.922.51.362.325.536.774.175.437.175.96 0 .512-.287.998-.287.474-.773.723.673.275 1.035.823.374.537.374 1.297 0 .599-.2 1.11-.199.5-.623.873-.424.362-1.085.574-.648.2-1.546.2z" style="-inkscape-font-specification:'Ubuntu Bold';text-align:center" aria-label="3" font-weight="700" font-size="12.471" font-family="Ubuntu" letter-spacing="0" word-spacing="0" text-anchor="middle" fill="red"/></g><path d="M287.018 208.622a7.47 7.617 0 0 1-7.471 7.617 7.47 7.617 0 0 1-7.47-7.617 7.47 7.617 0 0 1 7.47-7.617 7.47 7.617 0 0 1 7.47 7.617z" fill="#f9f9f9" paint-order="stroke markers fill"/><g style="line-height:1.25;-inkscape-font-specification:'Ubuntu Bold';font-variant-ligatures:normal;font-variant-caps:normal;font-variant-numeric:normal;text-align:center"><path d="M280.015 208.878q-.275 0-.587.05-.311.05-.486.137 0 .05-.012.15v.174q0 .45.062.848.062.4.212.699.15.299.399.473.25.163.624.163.311 0 .523-.125.225-.137.362-.337.15-.2.212-.436.075-.25.075-.474 0-.636-.324-.973-.312-.35-1.06-.35zm.236-1.447q.811 0 1.372.225.574.212.936.586.361.374.523.873.163.499.163 1.06 0 .499-.188 1.022-.174.524-.548.948-.362.424-.936.699-.56.274-1.334.274-1.559 0-2.37-.985-.81-.985-.81-2.719 0-1.247.387-2.207.386-.96 1.097-1.609.723-.661 1.733-.998 1.023-.349 2.295-.361l.05.76q.025.362.05.761-.636.013-1.197.125-.55.1-1.01.324-.45.225-.786.586-.337.35-.524.86.274-.124.561-.174.287-.05.537-.05z" style="-inkscape-font-specification:'Ubuntu Bold';text-align:center" aria-label="6" font-weight="700" font-size="12.471" font-family="Ubuntu" letter-spacing="0" word-spacing="0" text-anchor="middle" fill="red"/></g><path d="M318.659 291.825a7.47 7.617 0 0 1-7.471 7.617 7.47 7.617 0 0 1-7.47-7.617 7.47 7.617 0 0 1 7.47-7.617 7.47 7.617 0 0 1 7.47 7.617z" fill="#f9f9f9" paint-order="stroke markers fill"/><g style="line-height:1.25;-inkscape-font-specification:'Ubuntu Bold';font-variant-ligatures:normal;font-variant-caps:normal;font-variant-numeric:normal;text-align:center"><path d="M312.217 289.774q-.487.636-1.035 1.384-.55.748-.923 1.534h1.958zm1.82-2.27v5.188h.923v1.521h-.923v1.933h-1.82v-1.933h-3.73v-1.359q.275-.549.687-1.235.411-.698.91-1.421.511-.736 1.073-1.434.56-.699 1.122-1.26z" style="-inkscape-font-specification:'Ubuntu Bold';text-align:center" aria-label="4" font-weight="700" font-size="12.471" font-family="Ubuntu" letter-spacing="0" word-spacing="0" text-anchor="middle" fill="red"/></g><path d="M337.409 282.45a7.47 7.617 0 0 1-7.471 7.617 7.47 7.617 0 0 1-7.47-7.617 7.47 7.617 0 0 1 7.47-7.617 7.47 7.617 0 0 1 7.47 7.617z" fill="#f9f9f9" paint-order="stroke markers fill"/><g style="line-height:1.25;-inkscape-font-specification:'Ubuntu Bold';font-variant-ligatures:normal;font-variant-caps:normal;font-variant-numeric:normal;text-align:center"><path d="M331.478 284.227q0-.361-.162-.636-.162-.287-.561-.474-.4-.187-1.073-.286-.673-.1-1.696-.1.137-1.16.225-2.357.087-1.197.137-2.245h4.676v1.559h-3.117q-.025.449-.063.873-.025.411-.062.723 1.82.125 2.681.86.873.724.873 2.02 0 .6-.212 1.11-.212.512-.636.886-.424.374-1.072.586-.636.212-1.497.212-.337 0-.71-.05-.362-.037-.712-.112-.336-.062-.61-.137-.275-.075-.425-.15l.337-1.534q.312.138.823.275.511.125 1.222.125.86 0 1.247-.337.387-.35.387-.81z" style="-inkscape-font-specification:'Ubuntu Bold';text-align:center" aria-label="5" font-weight="700" font-size="12.471" font-family="Ubuntu" letter-spacing="0" word-spacing="0" text-anchor="middle" fill="red"/></g><path style="line-height:1.25;-inkscape-font-specification:Ubuntu;font-variant-ligatures:normal;font-variant-caps:normal;font-variant-numeric:normal;text-align:start" d="M23.363 30.694q-.45-.757-1.044-1.699-.574-.942-1.25-1.945-.675-1.023-1.412-2.067-.716-1.045-1.433-2.007-.716-.982-1.392-1.842-.676-.86-1.249-1.515v11.075h-1.945V16.507h1.577q.962 1.023 2.047 2.395 1.105 1.351 2.17 2.805 1.085 1.433 2.027 2.825.962 1.392 1.617 2.477V16.507h1.945v14.187zm4.617-7.104q0-1.822.532-3.214.553-1.392 1.474-2.313.942-.942 2.17-1.413 1.249-.47 2.641-.47 1.372 0 2.58.47 1.228.471 2.15 1.413.92.921 1.453 2.313.553 1.392.553 3.214 0 1.823-.553 3.215-.532 1.392-1.454 2.334-.92.92-2.15 1.392-1.207.47-2.579.47-1.392 0-2.64-.47-1.23-.471-2.171-1.392-.921-.942-1.474-2.334-.532-1.392-.532-3.215zm2.088 0q0 1.29.328 2.355.327 1.044.92 1.78.615.738 1.475 1.147.88.39 1.965.39t1.945-.39q.86-.409 1.454-1.146.614-.737.941-1.781.328-1.065.328-2.355t-.328-2.333q-.327-1.065-.941-1.802-.594-.737-1.454-1.126-.86-.41-1.945-.41t-1.965.41q-.86.389-1.474 1.126-.594.737-.921 1.802-.328 1.044-.328 2.333zm23.318-7.083v1.72h-4.463v12.467h-1.985V18.227h-4.464v-1.72zm16.274 0v1.72h-4.462v12.467h-1.986V18.227h-4.463v-1.72zm.945 7.083q0-1.822.532-3.214.553-1.392 1.474-2.313.942-.942 2.17-1.413 1.249-.47 2.641-.47 1.372 0 2.58.47 1.228.471 2.15 1.413.92.921 1.453 2.313.553 1.392.553 3.214 0 1.823-.553 3.215-.532 1.392-1.454 2.334-.92.92-2.15 1.392-1.207.47-2.579.47-1.392 0-2.64-.47-1.23-.471-2.17-1.392-.922-.942-1.475-2.334-.532-1.392-.532-3.215zm2.088 0q0 1.29.328 2.355.327 1.044.92 1.78.615.738 1.475 1.147.88.39 1.965.39t1.945-.39q.86-.409 1.454-1.146.614-.737.941-1.781.328-1.065.328-2.355t-.328-2.333q-.327-1.065-.941-1.802-.594-.737-1.454-1.126-.86-.41-1.945-.41t-1.965.41q-.86.389-1.474 1.126-.594.737-.921 1.802-.328 1.044-.328 2.333zm22.414 5.692q3.112 0 3.112-2.13 0-.654-.287-1.105-.266-.47-.737-.798-.47-.348-1.085-.594-.594-.246-1.27-.491-.777-.266-1.473-.594-.696-.348-1.208-.798-.512-.471-.82-1.106-.286-.635-.286-1.535 0-1.864 1.27-2.908 1.269-1.044 3.5-1.044 1.29 0 2.334.287 1.065.266 1.556.594l-.634 1.617q-.43-.266-1.29-.512-.84-.266-1.966-.266-.573 0-1.064.123-.492.123-.86.368-.369.246-.594.635-.204.368-.204.88 0 .574.225.963t.634.696q.41.286.942.532.553.246 1.208.491.921.369 1.679.737.778.369 1.33.88.574.512.88 1.229.308.696.308 1.7 0 1.862-1.372 2.865-1.35 1.004-3.828 1.004-.84 0-1.556-.123-.696-.103-1.249-.246-.553-.164-.962-.327-.39-.185-.614-.308l.593-1.637q.471.266 1.433.593.963.328 2.355.328zm13.681 1.72q-1.495 0-2.723-.492-1.228-.491-2.109-1.433-.88-.942-1.371-2.313-.471-1.392-.471-3.174 0-1.78.532-3.152.553-1.393 1.474-2.334.921-.942 2.15-1.433 1.228-.492 2.62-.492.88 0 1.577.123.716.123 1.228.287.532.164.86.327.327.164.45.246l-.573 1.638q-.184-.123-.532-.266-.348-.144-.799-.287-.43-.143-.962-.225-.512-.103-1.044-.103-1.126 0-2.027.39-.9.388-1.535 1.125-.635.737-.983 1.802-.328 1.044-.328 2.354 0 1.27.287 2.314.307 1.044.9 1.801.594.737 1.475 1.147.9.41 2.088.41 1.372 0 2.273-.287.9-.287 1.35-.512l.513 1.638q-.144.102-.512.266-.369.143-.922.287-.552.143-1.29.245-.736.103-1.596.103zm16.493-.308q-.348-.92-.655-1.801-.307-.9-.635-1.822h-6.428l-1.29 3.623h-2.068q.82-2.252 1.536-4.155.716-1.925 1.392-3.645.696-1.72 1.372-3.275.675-1.577 1.412-3.112h1.822q.737 1.535 1.413 3.112.676 1.556 1.351 3.275.696 1.72 1.413 3.645.716 1.903 1.535 4.155zm-1.863-5.261q-.655-1.781-1.31-3.44-.635-1.678-1.33-3.214-.717 1.536-1.372 3.215-.635 1.658-1.27 3.439zm14.477 3.542v1.72h-8.537V16.506h1.985v12.468zm2.099 1.719V16.507h8.66v1.7h-6.674v4.216h5.937v1.659h-5.937v4.913h7.186v1.7z" font-weight="400" font-size="16.512" font-family="Ubuntu" letter-spacing="0" word-spacing="0" fill="#03a9f4"/><path style="line-height:1.25;-inkscape-font-specification:Ubuntu;font-variant-ligatures:normal;font-variant-caps:normal;font-variant-numeric:normal;text-align:start" d="M254.57 824.68q-.212-.51-.572-1.295-.34-.785-.743-1.697-.403-.912-.87-1.867-.445-.976-.848-1.824-.403-.87-.764-1.549-.34-.679-.551-1.04-.234 2.504-.382 5.431-.149 2.907-.255 5.877h-2.015q.085-1.91.19-3.84.107-1.952.234-3.819.149-1.888.297-3.67.17-1.781.36-3.372h1.804q.573.933 1.23 2.206.658 1.273 1.316 2.673.657 1.379 1.272 2.779.616 1.379 1.125 2.524l1.124-2.524q.615-1.4 1.273-2.78.658-1.4 1.315-2.672.658-1.273 1.23-2.206h1.804q.721 7.106 1.082 14.7h-2.016q-.106-2.97-.254-5.876-.149-2.927-.382-5.43-.212.36-.573 1.04-.34.678-.742 1.548-.403.848-.87 1.824-.446.955-.849 1.867-.403.912-.763 1.697-.34.785-.552 1.294zm15.488.614q.7 0 1.23-.02.552-.043.913-.128v-3.288q-.212-.106-.7-.17-.467-.085-1.146-.085-.445 0-.954.064-.488.063-.912.276-.403.19-.68.551-.275.34-.275.912 0 1.061.679 1.485.679.403 1.845.403zm-.17-9.885q1.189 0 1.995.318.827.297 1.315.87.51.551.721 1.336.212.764.212 1.697v6.895q-.254.042-.72.127-.446.064-1.02.127-.572.064-1.25.106-.658.064-1.316.064-.933 0-1.718-.19-.785-.192-1.358-.595-.573-.424-.89-1.103-.32-.679-.32-1.633 0-.913.362-1.57.381-.658 1.018-1.061.636-.403 1.485-.594.848-.19 1.782-.19.297 0 .615.042.318.02.594.084.297.043.509.085.212.043.297.064v-.552q0-.488-.106-.954-.106-.488-.382-.849-.276-.382-.764-.594-.466-.233-1.23-.233-.976 0-1.718.148-.722.128-1.082.276l-.234-1.633q.382-.17 1.273-.319.891-.17 1.93-.17zm14.627 2.609q-.36-.297-1.04-.573-.678-.276-1.484-.276-.849 0-1.464.319-.594.297-.976.848-.382.53-.551 1.273-.17.743-.17 1.591 0 1.93.955 2.991.954 1.04 2.545 1.04.806 0 1.337-.064.551-.085.848-.17zm0-7.425l1.973-.34v16.144q-.679.191-1.74.382-1.06.191-2.44.191-1.272 0-2.29-.403t-1.74-1.145q-.72-.743-1.124-1.804-.382-1.082-.382-2.418 0-1.273.318-2.333.34-1.061.976-1.825.637-.764 1.549-1.188.933-.424 2.121-.424.955 0 1.676.255.743.254 1.103.487zm4.77 10.628q0-1.463.424-2.545.424-1.103 1.124-1.825.7-.721 1.613-1.082.912-.36 1.867-.36 2.227 0 3.415 1.4 1.188 1.379 1.188 4.221v.34q0 .19-.021.36h-7.552q.127 1.719.997 2.61.87.89 2.715.89 1.04 0 1.74-.17.72-.19 1.081-.36l.276 1.655q-.36.19-1.273.403-.89.212-2.036.212-1.443 0-2.503-.424-1.04-.446-1.719-1.21-.678-.763-1.018-1.802-.318-1.061-.318-2.313zm7.573-1.082q.021-1.336-.679-2.185-.679-.87-1.888-.87-.679 0-1.209.276-.509.255-.87.68-.36.423-.572.975-.191.552-.255 1.124zm22.037 1.061q0 1.315-.381 2.376-.382 1.06-1.082 1.824-.68.764-1.634 1.188-.954.403-2.079.403-1.124 0-2.079-.403-.954-.424-1.654-1.188-.68-.763-1.06-1.824-.383-1.06-.383-2.376 0-1.294.382-2.355.382-1.082 1.06-1.845.7-.764 1.655-1.167.955-.424 2.08-.424 1.124 0 2.078.424.955.403 1.634 1.167.7.763 1.082 1.845.381 1.061.381 2.355zm-2.057 0q0-1.867-.849-2.949-.827-1.103-2.27-1.103-1.442 0-2.29 1.103-.828 1.082-.828 2.949 0 1.867.827 2.97.849 1.082 2.291 1.082 1.443 0 2.27-1.082.849-1.103.849-2.97zm4.833-5.197q.679-.17 1.803-.36 1.125-.192 2.588-.192 1.316 0 2.185.382.87.36 1.38 1.04.53.657.742 1.59.212.934.212 2.058v6.195h-1.973v-5.77q0-1.019-.149-1.74-.127-.721-.445-1.167-.318-.445-.849-.636-.53-.212-1.315-.212-.318 0-.657.02-.34.022-.658.064-.297.022-.552.064-.233.042-.339.064v9.313h-1.973zm17.198-3.988h2.057v14.7h-2.057zm5.591 3.988q.678-.17 1.802-.36 1.125-.192 2.588-.192 1.316 0 2.185.382.87.36 1.38 1.04.53.657.742 1.59.212.934.212 2.058v6.195h-1.973v-5.77q0-1.019-.148-1.74-.128-.721-.446-1.167-.318-.445-.849-.636-.53-.212-1.315-.212-.318 0-.657.02-.34.022-.658.064-.297.022-.552.064-.233.042-.339.064v9.313h-1.973zm16.169 4.645q.636.488 1.336 1.21.721.72 1.4 1.57.7.827 1.315 1.697.616.848 1.04 1.59h-2.312q-.446-.742-1.04-1.506-.573-.784-1.21-1.485-.635-.72-1.293-1.315-.658-.594-1.252-.997v5.304h-1.973v-16.123l1.973-.34v10.056l1.125-1.124q.615-.615 1.209-1.252.594-.636 1.124-1.209.53-.594.912-1.04h2.313q-.488.53-1.061 1.167t-1.188 1.294l-1.252 1.294-1.166 1.21zm9.641 4.646q1.209 0 1.782-.318.594-.318.594-1.018 0-.721-.573-1.146-.573-.424-1.888-.954-.636-.255-1.23-.51-.573-.275-.997-.636-.425-.36-.68-.87-.254-.509-.254-1.251 0-1.464 1.082-2.313 1.082-.87 2.949-.87.466 0 .933.064.467.043.87.128.403.063.7.148.318.085.488.149l-.36 1.697q-.319-.17-.998-.34-.679-.19-1.633-.19-.828 0-1.443.339-.615.318-.615 1.018 0 .36.127.636.149.276.425.51.297.212.72.403.425.19 1.02.403.784.297 1.4.594.614.275 1.039.657.445.382.678.934.234.53.234 1.315 0 1.527-1.146 2.312-1.124.785-3.224.785-1.464 0-2.291-.254-.828-.234-1.125-.361l.361-1.697q.34.127 1.082.382.742.254 1.973.254zm11.674 1.676q-1.337 0-2.355-.424-.997-.424-1.697-1.188-.679-.764-1.018-1.803-.34-1.06-.34-2.334 0-1.273.361-2.333.382-1.06 1.06-1.825.68-.785 1.655-1.209.997-.445 2.207-.445.742 0 1.485.127.742.127 1.42.403l-.445 1.676q-.445-.212-1.039-.34-.573-.127-1.23-.127-1.655 0-2.546 1.04-.87 1.04-.87 3.033 0 .891.191 1.634.212.742.637 1.273.445.53 1.124.827.679.276 1.654.276.785 0 1.422-.149.636-.148.997-.318l.276 1.655q-.17.106-.488.212-.318.085-.722.148-.403.085-.87.128-.445.063-.87.063zm8.8-1.676q.7 0 1.23-.02.552-.043.913-.128v-3.288q-.212-.106-.7-.17-.467-.085-1.146-.085-.445 0-.954.064-.488.063-.913.276-.403.19-.678.551-.276.34-.276.912 0 1.061.679 1.485.679.403 1.845.403zm-.17-9.885q1.189 0 1.995.318.827.297 1.315.87.509.551.721 1.336.212.764.212 1.697v6.895q-.254.042-.721.127-.445.064-1.018.127-.573.064-1.252.106-.657.064-1.315.064-.933 0-1.718-.19-.785-.192-1.358-.595-.573-.424-.891-1.103-.318-.679-.318-1.633 0-.913.36-1.57.382-.658 1.019-1.061.636-.403 1.485-.594.848-.19 1.782-.19.297 0 .615.042.318.02.594.084.297.043.509.085.212.043.297.064v-.552q0-.488-.106-.954-.106-.488-.382-.849-.276-.382-.764-.594-.466-.233-1.23-.233-.976 0-1.718.148-.722.128-1.082.276l-.234-1.633q.382-.17 1.273-.319.891-.17 1.93-.17zm15.157 5.812q0-1.93-.954-2.97-.955-1.04-2.546-1.04-.89 0-1.4.064-.488.064-.785.149v6.958q.36.297 1.04.573.678.276 1.485.276.848 0 1.442-.297.615-.319.997-.849.382-.552.552-1.273.17-.742.17-1.59zm2.058 0q0 1.252-.34 2.313-.318 1.06-.954 1.824-.636.764-1.57 1.188-.912.424-2.1.424-.955 0-1.697-.254-.721-.255-1.082-.488v4.412h-1.973v-14.616q.7-.17 1.74-.36 1.06-.213 2.44-.213 1.272 0 2.29.403 1.019.403 1.74 1.146.721.742 1.103 1.824.403 1.06.403 2.397zm2.181 0q0-1.463.425-2.545.424-1.103 1.124-1.825.7-.721 1.613-1.082.912-.36 1.866-.36 2.228 0 3.416 1.4 1.188 1.379 1.188 4.221v.34q0 .19-.021.36h-7.553q.128 1.719.998 2.61.87.89 2.715.89 1.04 0 1.74-.17.72-.19 1.081-.36l.276 1.655q-.36.19-1.273.403-.89.212-2.036.212-1.443 0-2.503-.424-1.04-.446-1.719-1.21-.679-.763-1.018-1.802-.318-1.061-.318-2.313zm7.574-1.082q.021-1.336-.679-2.185-.679-.87-1.888-.87-.679 0-1.209.276-.51.255-.87.68-.36.423-.573.975-.19.552-.254 1.124z" font-weight="400" font-size="21.214" font-family="Ubuntu" letter-spacing="0" word-spacing="0" fill="#03a9f4"/><path style="line-height:1.25;-inkscape-font-specification:Ubuntu;font-variant-ligatures:normal;font-variant-caps:normal;font-variant-numeric:normal;text-align:start" d="M215.624 796.915q-.525-1.349-1.125-3.073-.58-1.742-1.068-3.616-.487 1.874-1.068 3.616-.58 1.724-1.105 3.073h-1.518q-.862-1.93-1.686-4.403-.825-2.473-1.555-5.34h1.873q.188.88.45 1.911.262 1.03.543 2.061.3 1.03.619 1.986.318.956.6 1.668.318-.88.618-1.855.318-.993.6-1.986.28-1.012.524-1.968.262-.974.45-1.817h1.442q.169.843.412 1.817.244.956.525 1.968.281.993.58 1.986.32.974.638 1.855.281-.712.58-1.668.32-.955.62-1.986.299-1.03.561-2.06.263-1.031.45-1.912h1.799q-.731 2.867-1.556 5.34-.824 2.473-1.686 4.403zm14.894 0q-.525-1.349-1.124-3.073-.581-1.742-1.068-3.616-.488 1.874-1.068 3.616-.581 1.724-1.106 3.073h-1.518q-.861-1.93-1.686-4.403-.824-2.473-1.555-5.34h1.874q.187.88.45 1.911.262 1.03.543 2.061.3 1.03.618 1.986.319.956.6 1.668.318-.88.618-1.855.318-.993.6-1.986.28-1.012.524-1.968.262-.974.45-1.817h1.442q.17.843.413 1.817.243.956.524 1.968.281.993.581 1.986.319.974.637 1.855.281-.712.581-1.668.319-.955.618-1.986.3-1.03.562-2.06.263-1.031.45-1.912h1.799q-.73 2.867-1.555 5.34t-1.687 4.403zm14.894 0q-.525-1.349-1.124-3.073-.581-1.742-1.068-3.616-.487 1.874-1.068 3.616-.581 1.724-1.106 3.073h-1.517q-.862-1.93-1.687-4.403-.824-2.473-1.555-5.34h1.874q.187.88.45 1.911.262 1.03.543 2.061.3 1.03.618 1.986.319.956.6 1.668.318-.88.618-1.855.319-.993.6-1.986.28-1.012.524-1.968.263-.974.45-1.817h1.443q.168.843.412 1.817.243.956.525 1.968.28.993.58 1.986.319.974.637 1.855.281-.712.581-1.668.319-.955.619-1.986.3-1.03.562-2.06.262-1.031.45-1.912h1.798q-.73 2.867-1.555 5.34-.824 2.473-1.686 4.403zm8.078-1.012q0 .506-.338.88-.337.376-.918.376t-.918-.375q-.337-.375-.337-.88 0-.507.337-.881.337-.375.918-.375.58 0 .918.375.337.374.337.88zm11.15-3.859q0 1.161-.338 2.098-.337.937-.956 1.611-.6.675-1.442 1.05-.843.356-1.836.356-.993 0-1.837-.356-.843-.375-1.461-1.05-.6-.674-.937-1.61-.337-.938-.337-2.1 0-1.142.337-2.08.337-.955.937-1.63.618-.674 1.461-1.03.844-.375 1.837-.375t1.836.375q.843.356 1.442 1.03.619.675.956 1.63.337.938.337 2.08zm-1.818 0q0-1.65-.75-2.605-.73-.974-2.004-.974-1.275 0-2.024.974-.73.956-.73 2.605 0 1.648.73 2.623.75.955 2.024.955t2.004-.955q.75-.975.75-2.623zm11.033.018q0-1.705-.843-2.623-.843-.918-2.249-.918-.787 0-1.236.056-.431.056-.694.131v6.146q.319.262.919.506.6.244 1.311.244.75 0 1.274-.263.544-.28.88-.75.338-.486.488-1.123.15-.656.15-1.406zm1.817 0q0 1.106-.3 2.043-.28.936-.843 1.61-.562.675-1.386 1.05-.806.375-1.855.375-.843 0-1.499-.225-.637-.225-.956-.43v3.896h-1.742v-12.91q.618-.15 1.536-.318.937-.187 2.155-.187 1.124 0 2.024.356.899.356 1.536 1.012.637.655.974 1.611.356.937.356 2.117zm1.928 0q0-1.293.374-2.248.375-.974.993-1.611.618-.638 1.424-.956.806-.319 1.649-.319 1.967 0 3.016 1.237 1.05 1.218 1.05 3.729v.3q0 .168-.019.318h-6.67q.112 1.518.88 2.305.769.787 2.399.787.918 0 1.536-.15.637-.169.956-.319l.243 1.462q-.318.168-1.124.356-.787.187-1.799.187-1.274 0-2.21-.375-.919-.393-1.518-1.068-.6-.674-.9-1.592-.28-.937-.28-2.043zm6.688-.955q.019-1.18-.6-1.93-.599-.768-1.667-.768-.6 0-1.068.243-.45.225-.768.6-.319.375-.506.862-.169.487-.225.993zm4.321-3.654q.6-.15 1.592-.318.994-.17 2.286-.17 1.162 0 1.93.338.768.319 1.218.918.469.581.656 1.406.187.824.187 1.817v5.471h-1.742v-5.096q0-.9-.131-1.537-.113-.637-.394-1.03-.28-.394-.75-.562-.468-.188-1.161-.188-.281 0-.58.019-.3.019-.582.056-.262.019-.487.056-.206.038-.3.057v8.225h-1.742zm13.026 8.207q1.068 0 1.574-.281.524-.281.524-.9 0-.637-.505-1.011-.506-.375-1.668-.844-.562-.224-1.087-.45-.506-.243-.88-.561-.375-.319-.6-.769-.225-.45-.225-1.105 0-1.293.956-2.042.955-.769 2.604-.769.412 0 .825.057.412.037.768.112.356.056.618.131.281.075.431.131l-.318 1.5q-.281-.15-.881-.3-.6-.17-1.443-.17-.73 0-1.274.3-.543.282-.543.9 0 .319.112.562.131.244.375.45.262.187.637.356.375.168.9.356.693.262 1.236.524.543.244.918.581.394.338.6.825.206.468.206 1.161 0 1.35-1.012 2.043-.993.693-2.848.693-1.293 0-2.024-.225-.73-.206-.993-.318l.319-1.5q.3.113.955.338.656.225 1.743.225zm7.707-8.488h3.69v1.461h-3.69v4.497q0 .731.112 1.218.112.469.337.75.225.262.562.374.338.113.787.113.787 0 1.256-.169.487-.187.674-.262l.337 1.443q-.262.13-.918.318-.655.206-1.499.206-.993 0-1.648-.243-.637-.263-1.03-.769-.394-.505-.563-1.236-.15-.75-.15-1.724v-8.694l1.743-.3zm9.506-.206q.224 0 .505.037.3.02.581.075.281.038.506.094.244.038.356.075l-.3 1.518q-.206-.075-.693-.169-.468-.112-1.218-.112-.487 0-.974.112-.468.094-.618.131v8.188h-1.743v-9.33q.618-.226 1.537-.413.918-.206 2.06-.206zm3.105 5.096q0-1.293.374-2.248.375-.974.993-1.611.619-.638 1.424-.956.806-.319 1.65-.319 1.967 0 3.016 1.237 1.049 1.218 1.049 3.729v.3q0 .168-.019.318h-6.67q.113 1.518.88 2.305.769.787 2.399.787.918 0 1.536-.15.637-.169.956-.319l.244 1.462q-.319.168-1.125.356-.787.187-1.798.187-1.274 0-2.211-.375-.918-.393-1.518-1.068-.6-.674-.9-1.592-.28-.937-.28-2.043zm6.689-.955q.018-1.18-.6-1.93-.6-.768-1.668-.768-.6 0-1.068.243-.45.225-.768.6t-.506.862q-.168.487-.224.993zm3.777.955q0-1.293.375-2.248.374-.974.993-1.611.618-.638 1.424-.956.805-.319 1.648-.319 1.968 0 3.017 1.237 1.05 1.218 1.05 3.729v.3q0 .168-.02.318h-6.67q.113 1.518.88 2.305.77.787 2.4.787.917 0 1.536-.15.637-.169.955-.319l.244 1.462q-.319.168-1.124.356-.787.187-1.8.187-1.273 0-2.21-.375-.918-.393-1.518-1.068-.6-.674-.9-1.592-.28-.937-.28-2.043zm6.689-.955q.018-1.18-.6-1.93-.6-.768-1.667-.768-.6 0-1.068.243-.45.225-.769.6-.318.375-.505.862-.17.487-.225.993zm5.95-3.935h3.692v1.461h-3.692v4.497q0 .731.113 1.218.112.469.337.75.225.262.562.374.338.113.787.113.787 0 1.256-.169.487-.187.674-.262l.337 1.443q-.262.13-.918.318-.656.206-1.499.206-.993 0-1.649-.243-.637-.263-1.03-.769-.394-.505-.562-1.236-.15-.75-.15-1.724v-8.694l1.742-.3zm13.516 0q-.73 2.736-1.724 5.246-.974 2.511-1.892 4.497h-1.574q-.918-1.986-1.911-4.497-.974-2.51-1.705-5.246h1.873q.225.918.525 1.967.319 1.03.656 2.061.356 1.012.712 1.968.356.955.674 1.705.319-.75.675-1.705.356-.956.693-1.968.356-1.03.656-2.06.319-1.05.543-1.968zm3.54 9.743h-1.742v-9.743h1.742zm-.88-11.504q-.469 0-.806-.3-.318-.319-.318-.843 0-.525.318-.825.337-.318.806-.318.468 0 .787.318.337.3.337.825 0 .524-.337.843-.319.3-.787.3zm3.352 6.651q0-1.293.375-2.248.374-.974.993-1.611.618-.638 1.424-.956.805-.319 1.649-.319 1.967 0 3.016 1.237 1.05 1.218 1.05 3.729v.3q0 .168-.02.318h-6.67q.113 1.518.881 2.305.768.787 2.398.787.918 0 1.537-.15.637-.169.955-.319l.244 1.462q-.319.168-1.124.356-.787.187-1.799.187-1.274 0-2.211-.375-.918-.393-1.518-1.068-.6-.674-.899-1.592-.281-.937-.281-2.043zm6.689-.955q.019-1.18-.6-1.93-.6-.768-1.667-.768-.6 0-1.068.243-.45.225-.768.6-.319.375-.506.862-.169.487-.225.993zm12.284 5.808q-.525-1.349-1.125-3.073-.58-1.742-1.068-3.616-.487 1.874-1.068 3.616-.58 1.724-1.105 3.073h-1.518q-.862-1.93-1.686-4.403t-1.555-5.34h1.873q.188.88.45 1.911.262 1.03.544 2.061.3 1.03.618 1.986t.6 1.668q.318-.88.618-1.855.318-.993.6-1.986.28-1.012.524-1.968.262-.974.45-1.817h1.442q.169.843.413 1.817.243.956.524 1.968.281.993.581 1.986.319.974.637 1.855.281-.712.58-1.668.32-.955.62-1.986.299-1.03.561-2.06.263-1.031.45-1.912h1.799q-.731 2.867-1.555 5.34-.825 2.473-1.687 4.403zm8.077-1.012q0 .506-.337.88-.338.376-.918.376-.581 0-.919-.375-.337-.375-.337-.88 0-.507.337-.881.338-.375.919-.375.58 0 .918.375.337.374.337.88zm11.15-3.859q0 1.161-.337 2.098-.338.937-.956 1.611-.6.675-1.443 1.05-.843.356-1.836.356-.993 0-1.836-.356-.843-.375-1.461-1.05-.6-.674-.937-1.61-.338-.938-.338-2.1 0-1.142.338-2.08.337-.955.937-1.63.618-.674 1.461-1.03.843-.375 1.836-.375.993 0 1.836.375.844.356 1.443 1.03.618.675.956 1.63.337.938.337 2.08zm-1.817 0q0-1.65-.75-2.605-.73-.974-2.005-.974-1.274 0-2.023.974-.731.956-.731 2.605 0 1.648.73 2.623.75.955 2.024.955t2.005-.955q.75-.975.75-2.623zm7.866-5.078q.225 0 .506.037.3.02.58.075.282.038.507.094.243.038.356.075l-.3 1.518q-.206-.075-.693-.169-.469-.112-1.218-.112-.487 0-.975.112-.468.094-.618.131v8.188h-1.742v-9.33q.618-.226 1.536-.413.918-.206 2.061-.206zm9.757 8.974q-.225.15-.881.394-.637.225-1.499.225-.88 0-1.668-.281-.768-.281-1.349-.862-.58-.6-.918-1.48-.337-.88-.337-2.099 0-1.068.319-1.948.318-.9.918-1.537.618-.655 1.499-1.011.88-.375 1.986-.375 1.218 0 2.117.187.918.169 1.536.319v8.694q0 2.248-1.161 3.26-1.162 1.012-3.523 1.012-.918 0-1.742-.15-.806-.15-1.406-.356l.319-1.518q.525.206 1.274.356.768.169 1.593.169 1.555 0 2.23-.619.693-.618.693-1.967zm-.02-7.232q-.261-.074-.711-.13-.431-.076-1.18-.076-1.406 0-2.174.918-.75.919-.75 2.436 0 .843.207 1.443.224.6.58.993.375.393.844.58.487.188.993.188.693 0 1.274-.187.58-.206.918-.469z" font-weight="400" font-size="18.737" font-family="Ubuntu" letter-spacing="0" word-spacing="0" fill="#03a9f4"/><path d="M277.124 463.816l24.855-24.87-3.604-4.177-4.544-18.492 17.343 11.402 5.364 17.762 22.086 12.355 14.121 14.012 4.64 4.395 1.53 4.268-1.62 6.196-6.241 6.704-32.894 47.484-16.73 22.91-10.299 14.106-13.33 18.261-25.774 36.63-4.074 10.171-.672 9.16 1.691 12.887 2.316 11.582-3.183 12.16-3.012 6.59-16.129-.824h-12.212l-11.53-4.074-13.567-5.426h-6.784l-6.443 2.375-7.12 7.804-5.086 9.83-3.394 11.53-.68 16.617-1.692 8.145-.93 11.121-5.5 4.043-15.276 1.79-21.75 15.89-15.24 15.5-10.929 8.398-9.754 3.875-11.504 2.461-6.96-3.446-4.278-5.062-7.012-10.742-5.942-3.489" fill="none" stroke="#fff176" stroke-width="4.8" stroke-linecap="round" stroke-linejoin="round"/><rect width="25.348" height="24.53" x="4.83" y="373.57" ry="0" transform="rotate(-42.376)" fill="#d9cfc7" stroke="#b8a89c" stroke-width=".75" paint-order="markers fill stroke"/><path d="M5.052 819.785l40.33-38.156 6.789-8.277 2.355-5.372 1.48-7.34-1.245-13.863-2.738-19.105-4.844-26.238-1.496-26.102L42.878 658l-1.36-14.043 1.551-24.086 2.036-14.242-1.7-11.867.34-8.145 5.43-10.512 10.172-9.835 4.746-8.477 3.715-8.617 5.785-13.43 8.816-22.039 1.02-18.32-5.43-13.223-8.137-17.977-6.78-20.347-7.34-22.887-4.192-13.066-2.914-12.832-4.55-20.063-9.833-25.433-11.871-19.672-2.715-7.121-.34-6.79 5.09-7.113 8.817-7.125 5.09-8.48 5.761-12.547 8.145-9.84 3.046-8.473.34-10.515-1.351-12.89.332-9.833 7.125-8.137 8.48-8.48 5.766-10.512 6.101-15.605 3.606-5.93 2.164-3.566.34-6.442 2.375-5.77 3.726-2.034 7.125.343 11.192 5.766 9.156.68 5.422-5.766 4.07-10.855 2.035-9.836 7.852-8.75 6.055-3.457 14.586-25.778 7.12-29.504 6.102-16.28 3.73-14.923-1.015-10.172-6.441-11.87-2.035-5.766 2.37-5.086 5.426-3.051 10.852-1.7L207.218 5h15.262l12.203 3.059 5.43 6.78 3.054 9.493 4.75 4.074 7.516 1.762 9.437-2.105 19.328-10.852" fill="none" stroke="#ff8080" stroke-width="10" stroke-linecap="round" stroke-linejoin="round"/><path d="M32.577 573.602l.457-1.274 1.164-.691.38-.035h23l1.273.457.691 1.16.035.383v15l-.457 1.269-1.16.691-.383.04h-23l-1.27-.457-.69-1.165-.04-.378zm0 0" fill="#f0d7cc" stroke="#d7a699"/><use xlink:href="#v" x="31.217" y="611.625" width="100%" height="100%" fill="#5c190a" transform="translate(3.46 -26.3)"/><use xlink:href="#w" x="39.577" y="611.625" width="100%" height="100%" fill="#5c190a" transform="translate(3.46 -26.3)"/><use xlink:href="#x" x="47.728" y="611.625" width="100%" height="100%" fill="#5c190a" transform="translate(3.46 -26.3)"/><path style="line-height:1.25;-inkscape-font-specification:'Liberation Mono';font-variant-ligatures:normal;font-variant-position:normal;font-variant-caps:normal;font-variant-numeric:normal;font-variant-alternates:normal;font-feature-settings:normal;text-indent:0;text-align:start;text-decoration-line:none;text-decoration-style:solid;text-decoration-color:#000;text-transform:none;text-orientation:mixed;white-space:normal;shape-padding:0" d="M301.021 526.532q.006 2.297-1.06 3.541-1.058 1.238-3.042 1.243l-2.567.006-.023-9.359 2.157-.005q2.283-.006 3.403 1.136 1.126 1.135 1.132 3.438zm-1.332.004q-.004-1.832-.77-2.662-.765-.838-2.423-.834l-.84.002.019 7.195 1.124-.003q1.47-.004 2.183-.928.712-.925.707-2.77zm7.225 3.77l2.636-.007.002.985-6.812.017-.003-.985 2.928-.007-.014-5.536-2.213.005-.002-.985 3.461-.009zm-1.408-7.975l-.003-1.332 1.387-.004.004 1.332zm12.109 6.789q.003 1.069-.807 1.681-.803.606-2.233.61-1.429.003-2.179-.44-.743-.448-.975-1.412l1.103-.218q.133.596.564.873.438.27 1.485.267 1.873-.005 1.87-1.191 0-.444-.341-.714-.341-.277-1.042-.448-1.833-.447-2.326-.702-.493-.256-.758-.637-.264-.387-.266-.963-.002-1.02.732-1.598.733-.577 2.128-.58 1.22-.004 1.95.46.73.455.913 1.336l-1.124.141q-.077-.499-.494-.755-.417-.255-1.243-.253-1.7.004-1.697 1.052.001.416.286.665.292.249.93.4l.827.213q1.132.275 1.625.544.5.27.785.678.286.402.287.991zm8.724-1.666q.01 3.927-2.71 3.934-1.707.004-2.3-1.271h-.034q.028.055.03 1.151l.008 2.935-1.256.003-.022-8.9q-.003-1.18-.046-1.554l1.214-.004q.007.028.022.209.014.173.029.52.021.34.022.506h.028q.345-.73.878-1.057.54-.334 1.407-.336 1.374-.004 2.05.945.675.942.68 2.92zm-1.29.003q-.005-1.567-.43-2.232-.424-.672-1.333-.67-1.048.003-1.51.767-.464.757-.46 2.297.004 1.478.47 2.164.467.685 1.5.683.923-.003 1.345-.704.421-.702.417-2.305zm4.481.287q.004 1.263.56 1.976.564.713 1.535.711.715-.002 1.248-.308.54-.314.72-.849l1.097.31q-.303.86-1.12 1.32-.811.46-1.942.464-1.637.004-2.521-1.014-.884-1.018-.888-2.918-.005-1.853.853-2.847.864-1.001 2.495-1.005 1.63-.004 2.472.986.842.99.847 2.995v.166zm2.053-3.238q-.93.003-1.47.615-.539.605-.571 1.666l4.052-.01q-.2-2.275-2.011-2.27zm10.263 6.697l-.012-4.821q-.002-.944-.37-1.4-.363-.458-1.16-.456-.86.002-1.414.635-.547.626-.544 1.701l.01 4.35-1.248.003-.015-5.904q-.003-1.31-.045-1.602l1.18-.003q.006.035.013.187.008.153.015.354.015.194.03.742h.02q.726-1.424 2.397-1.428 1.2-.003 1.792.648.591.643.595 1.99l.012 5.001zm9.846-2.168q.003 1.068-.807 1.68-.803.606-2.233.61-1.429.004-2.18-.439-.743-.449-.974-1.412l1.103-.218q.133.596.564.872.438.27 1.485.267 1.873-.004 1.87-1.19 0-.445-.341-.714-.341-.277-1.042-.449-1.833-.446-2.326-.702-.493-.255-.758-.636-.264-.388-.266-.964-.002-1.02.731-1.597.734-.578 2.129-.581 1.22-.003 1.95.46.73.456.913 1.336l-1.124.142q-.077-.5-.494-.755-.417-.256-1.243-.254-1.7.005-1.697 1.052.001.417.286.666.292.249.93.4l.827.213q1.131.274 1.625.544.5.269.785.678.286.401.287.99zm8.808 1.351q.18 0 .409-.05l.001.778q-.471.112-.964.113-.693.002-1.013-.358-.313-.367-.357-1.144h-.042q-.448.84-1.065 1.21-.61.37-1.511.372-1.097.002-1.653-.593t-.56-1.636q-.005-2.42 3.144-2.464l1.638-.031-.001-.41q-.003-.908-.371-1.303-.37-.401-1.174-.4-.819.003-1.179.295-.36.292-.427.903l-1.305-.115q.314-2.026 2.93-2.033 1.387-.003 2.082.647.703.643.706 1.871l.008 3.233q.001.555.148.84.146.276.555.275zm-4.226-.03q.666-.002 1.179-.323.512-.32.796-.855.283-.535.281-1.104l-.001-.617-1.318.03q-.819.017-1.249.184-.43.168-.671.515-.235.341-.234.91.002.569.308.915.313.346.91.344zm12.342-5.588q-.777-.13-1.471-.129-1.117.003-1.802.844-.684.842-.681 2.139l.009 3.524-1.249.003-.012-4.863q-.002-.527-.1-1.242-.092-.714-.268-1.4l1.187-.003q.28.956.337 1.733h.035q.345-.778.677-1.14.332-.368.79-.55.457-.188 1.116-.19.721-.001 1.43.115zm3.319 9.308q-.514.002-.86-.074l-.003-.936q.264.04.583.04.548-.002 1.026-.412.484-.41.815-1.306l.124-.34-3.28-7.423 1.333-.003 1.842 4.45q.636 1.552.685 1.76l.282-.764 2.137-5.458 1.318-.004-3.144 7.515q-.614 1.632-1.278 2.292-.658.661-1.58.663z" aria-label="Dispensary" font-weight="400" font-size="14.208" font-family="Liberation Mono" letter-spacing="0" word-spacing="0" fill="#212121" stroke="#dfd" stroke-width="2.428" paint-order="stroke markers fill"/><path d="M340.925 512.863a7.47 7.617 0 0 1-7.47 7.617 7.47 7.617 0 0 1-7.472-7.617 7.47 7.617 0 0 1 7.471-7.617 7.47 7.617 0 0 1 7.47 7.617z" fill="#f9f9f9" paint-order="stroke markers fill"/><g style="line-height:1.25;-inkscape-font-specification:'serif Bold';font-variant-ligatures:normal;font-variant-caps:normal;font-variant-numeric:normal;text-align:start"><path style="-inkscape-font-specification:'serif Bold'" d="M334.276 508.285v3.757h3.757v1.643h-3.757v3.757h-1.643v-3.757h-3.757v-1.643h3.757v-3.757z" aria-label="+" font-weight="700" font-size="14.629" font-family="serif" letter-spacing="0" word-spacing="0" fill="red"/></g></svg>